<svg version="1.1" viewBox="0.0 0.0 800.0 600.0" fill="none" stroke="none" stroke-linecap="square" stroke-miterlimit="10" xmlns:xlink="http://www.w3.org/1999/xlink" xmlns="http://www.w3.org/2000/svg"><clipPath id="p.0"><path d="m0 0l800.0 0l0 600.0l-800.0 0l0 -600.0z" clip-rule="nonzero"/></clipPath><g clip-path="url(#p.0)"><path fill="#000000" fill-opacity="0.0" d="m0 0l800.0 0l0 600.0l-800.0 0z" fill-rule="evenodd"/><path fill="#000000" fill-opacity="0.0" d="m122.47244 285.14697l33.95276 0l0 42.015747l-33.95276 0z" fill-rule="evenodd"/><path fill="#000000" d="m133.03494 304.03574l5.78125 0l0 0.234375l-6.296875 6.5625l2.671875 0q0.953125 0 1.203125 -0.078125q0.25 -0.078125 0.46875 -0.3125q0.21875 -0.234375 0.46875 -0.859375l0.34375 0l-0.796875 2.484375l-5.921875 0l0 -0.265625l6.296875 -6.5625l-2.625 0q-0.828125 0 -1.0 0.046875q-0.25 0.0625 -0.5 0.296875q-0.25 0.21875 -0.515625 0.765625l-0.34375 0l0.765625 -2.3125z" fill-rule="nonzero"/><path fill="#000000" fill-opacity="0.0" d="m147.17061 310.79004l47.338577 0l0 42.015747l-47.338577 0z" fill-rule="evenodd"/><path fill="#000000" d="m159.40498 329.46002q0.453125 0.484375 0.671875 0.953125q0.171875 0.328125 0.546875 1.71875l0.796875 -1.203125q0.328125 -0.4375 0.78125 -0.828125q0.453125 -0.390625 0.796875 -0.546875q0.21875 -0.09375 0.484375 -0.09375q0.390625 0 0.625 0.21875q0.234375 0.203125 0.234375 0.5q0 0.359375 -0.140625 0.484375q-0.25 0.21875 -0.578125 0.21875q-0.203125 0 -0.421875 -0.078125q-0.421875 -0.140625 -0.5625 -0.140625q-0.21875 0 -0.53125 0.25q-0.5625 0.46875 -1.34375 1.828125l0.75 3.140625q0.171875 0.71875 0.28125 0.859375q0.125 0.140625 0.25 0.140625q0.1875 0 0.4375 -0.203125q0.5 -0.421875 0.859375 -1.09375l0.328125 0.15625q-0.578125 1.078125 -1.46875 1.78125q-0.5 0.40625 -0.84375 0.40625q-0.515625 0 -0.8125 -0.578125q-0.1875 -0.34375 -0.796875 -3.0625q-1.40625 2.46875 -2.265625 3.1875q-0.5625 0.453125 -1.078125 0.453125q-0.359375 0 -0.671875 -0.265625q-0.21875 -0.203125 -0.21875 -0.53125q0 -0.3125 0.203125 -0.5q0.203125 -0.203125 0.5 -0.203125q0.28125 0 0.609375 0.28125q0.234375 0.21875 0.375 0.21875q0.109375 0 0.28125 -0.140625q0.421875 -0.359375 1.15625 -1.5q0.75 -1.15625 0.96875 -1.65625q-0.5625 -2.21875 -0.609375 -2.34375q-0.203125 -0.59375 -0.546875 -0.828125q-0.328125 -0.25 -0.984375 -0.25q-0.21875 0 -0.484375 0.015625l0 -0.328125l2.421875 -0.4375z" fill-rule="nonzero"/><path fill="#000000" fill-opacity="0.0" d="m147.17061 195.54068l534.1417 0l0 125.543304l-534.1417 0z" fill-rule="evenodd"/><path stroke="#000000" stroke-width="1.0" stroke-linejoin="round" stroke-linecap="butt" d="m147.17061 195.54068l534.1417 0l0 125.543304l-534.1417 0z" fill-rule="evenodd"/><path fill="#000000" fill-opacity="0.0" d="m55.574802 219.20998l71.02362 0" fill-rule="evenodd"/><path stroke="#000000" stroke-width="1.0" stroke-linejoin="round" stroke-linecap="butt" d="m55.574802 219.20998l65.02362 0" fill-rule="evenodd"/><path fill="#000000" stroke="#000000" stroke-width="1.0" stroke-linecap="butt" d="m120.59843 220.86171l4.5380936 -1.6517334l-4.5380936 -1.6517334z" fill-rule="evenodd"/><path fill="#000000" fill-opacity="0.0" d="m55.574802 258.31235l71.02362 0" fill-rule="evenodd"/><path stroke="#000000" stroke-width="1.0" stroke-linejoin="round" stroke-linecap="butt" d="m55.574802 258.31235l65.02362 0" fill-rule="evenodd"/><path fill="#000000" stroke="#000000" stroke-width="1.0" stroke-linecap="butt" d="m120.59843 259.96408l4.5380936 -1.6517334l-4.5380936 -1.6517334z" fill-rule="evenodd"/><path fill="#000000" fill-opacity="0.0" d="m55.574802 300.0l71.02362 0" fill-rule="evenodd"/><path stroke="#000000" stroke-width="1.0" stroke-linejoin="round" stroke-linecap="butt" d="m55.574802 300.0l65.02362 0" fill-rule="evenodd"/><path fill="#000000" stroke="#000000" stroke-width="1.0" stroke-linecap="butt" d="m120.59843 301.65173l4.5380936 -1.6517334l-4.5380936 -1.6517334z" fill-rule="evenodd"/><path fill="#000000" fill-opacity="0.0" d="m147.17061 321.08398l0 -29.858276" fill-rule="evenodd"/><path stroke="#000000" stroke-width="2.0" stroke-linejoin="round" stroke-linecap="butt" d="m147.17061 321.08398l0 -17.858276" fill-rule="evenodd"/><path fill="#000000" stroke="#000000" stroke-width="2.0" stroke-linecap="butt" d="m150.47408 303.2257l-3.3034668 -9.076172l-3.3034668 9.076172z" fill-rule="evenodd"/><path fill="#000000" fill-opacity="0.0" d="m683.3622 322.12598l-536.18896 -0.5354309" fill-rule="evenodd"/><path stroke="#9900ff" stroke-width="3.0" stroke-linejoin="round" stroke-linecap="butt" d="m683.3622 322.12598l-536.18896 -0.5354309" fill-rule="evenodd"/><path fill="#000000" fill-opacity="0.0" d="m147.17061 321.08398l33.952744 1.0393677" fill-rule="evenodd"/><path stroke="#000000" stroke-width="2.0" stroke-linejoin="round" stroke-linecap="butt" d="m147.17061 321.08398l21.958374 0.6722107" fill-rule="evenodd"/><path fill="#000000" stroke="#000000" stroke-width="2.0" stroke-linecap="butt" d="m169.0279 325.0581l9.173035 -3.0242004l-8.970871 -3.5796509z" fill-rule="evenodd"/><path fill="#000000" fill-opacity="0.0" d="m69.480316 182.16011l43.2126 0l0 42.015747l-43.2126 0z" fill-rule="evenodd"/><path fill="#000000" d="m86.37094 200.73636l0 5.0625q0 1.4375 0.0625 1.765625q0.078125 0.328125 0.21875 0.453125q0.15625 0.125 0.359375 0.125q0.28125 0 0.640625 -0.15625l0.125 0.3125l-2.484375 1.03125l-0.421875 0l0 -1.765625q-1.078125 1.171875 -1.640625 1.46875q-0.5625 0.296875 -1.1875 0.296875q-0.703125 0 -1.21875 -0.40625q-0.515625 -0.40625 -0.71875 -1.03125q-0.1875 -0.640625 -0.1875 -1.8125l0 -3.71875q0 -0.59375 -0.140625 -0.8125q-0.125 -0.234375 -0.375 -0.359375q-0.25 -0.125 -0.90625 -0.109375l0 -0.34375l2.921875 0l0 5.578125q0 1.171875 0.40625 1.546875q0.40625 0.359375 0.984375 0.359375q0.390625 0 0.890625 -0.25q0.5 -0.25 1.171875 -0.9375l0 -4.734375q0 -0.703125 -0.265625 -0.953125q-0.25 -0.25 -1.0625 -0.265625l0 -0.34375l2.828125 0zm2.109375 2.234375q0 -2.109375 0.640625 -3.625q0.640625 -1.53125 1.6875 -2.28125q0.828125 -0.59375 1.703125 -0.59375q1.421875 0 2.546875 1.453125q1.40625 1.796875 1.40625 4.859375q0 2.15625 -0.625 3.65625q-0.609375 1.5 -1.578125 2.1875q-0.953125 0.671875 -1.84375 0.671875q-1.765625 0 -2.9375 -2.09375q-1.0 -1.75 -1.0 -4.234375zm1.78125 0.234375q0 2.546875 0.640625 4.15625q0.515625 1.359375 1.546875 1.359375q0.484375 0 1.015625 -0.4375q0.53125 -0.4375 0.796875 -1.484375q0.421875 -1.5625 0.421875 -4.421875q0 -2.109375 -0.4375 -3.515625q-0.328125 -1.046875 -0.84375 -1.484375q-0.375 -0.296875 -0.90625 -0.296875q-0.609375 0 -1.09375 0.546875q-0.65625 0.765625 -0.90625 2.390625q-0.234375 1.609375 -0.234375 3.1875z" fill-rule="nonzero"/><path fill="#000000" fill-opacity="0.0" d="m381.8189 285.14697l283.02362 0l0 42.015747l-283.02362 0z" fill-rule="evenodd"/><path fill="#000000" d="m394.64703 306.28574l0 3.59375q0 1.171875 0.25 1.453125q0.34375 0.390625 1.046875 0.390625l0.484375 0l0 0.34375l-5.296875 0l0 -0.34375l0.46875 0q0.78125 0 1.109375 -0.5q0.1875 -0.28125 0.1875 -1.34375l0 -7.984375q0 -1.15625 -0.25 -1.4375q-0.359375 -0.40625 -1.046875 -0.40625l-0.46875 0l0 -0.34375l4.53125 0q1.65625 0 2.609375 0.34375q0.953125 0.34375 1.609375 1.15625q0.65625 0.8125 0.65625 1.921875q0 1.515625 -1.0 2.46875q-1.0 0.9375 -2.8125 0.9375q-0.453125 0 -0.96875 -0.0625q-0.515625 -0.0625 -1.109375 -0.1875zm0 -0.515625q0.484375 0.078125 0.859375 0.125q0.375 0.046875 0.625 0.046875q0.953125 0 1.640625 -0.734375q0.6875 -0.734375 0.6875 -1.890625q0 -0.8125 -0.328125 -1.5q-0.328125 -0.6875 -0.9375 -1.015625q-0.59375 -0.34375 -1.359375 -0.34375q-0.453125 0 -1.1875 0.171875l0 5.140625zm10.000702 -6.65625l0 11.0625q0 0.78125 0.109375 1.046875q0.125 0.25 0.359375 0.390625q0.234375 0.125 0.875 0.125l0 0.328125l-4.09375 0l0 -0.328125q0.578125 0 0.78125 -0.109375q0.21875 -0.125 0.328125 -0.390625q0.125 -0.28125 0.125 -1.0625l0 -7.578125q0 -1.40625 -0.0625 -1.734375q-0.0625 -0.328125 -0.203125 -0.4375q-0.140625 -0.125 -0.359375 -0.125q-0.234375 0 -0.609375 0.15625l-0.140625 -0.328125l2.484375 -1.015625l0.40625 0zm7.042694 11.75q-1.28125 1.0 -1.609375 1.15625q-0.5 0.21875 -1.046875 0.21875q-0.875 0 -1.4375 -0.59375q-0.546875 -0.59375 -0.546875 -1.5625q0 -0.609375 0.265625 -1.046875q0.375 -0.625 1.296875 -1.171875q0.921875 -0.546875 3.078125 -1.328125l0 -0.328125q0 -1.25 -0.40625 -1.703125q-0.390625 -0.46875 -1.140625 -0.46875q-0.578125 0 -0.921875 0.3125q-0.34375 0.296875 -0.34375 0.703125l0.015625 0.53125q0 0.421875 -0.21875 0.65625q-0.203125 0.21875 -0.546875 0.21875q-0.34375 0 -0.5625 -0.234375q-0.203125 -0.234375 -0.203125 -0.65625q0 -0.78125 0.796875 -1.4375q0.8125 -0.65625 2.25 -0.65625q1.109375 0 1.828125 0.375q0.53125 0.28125 0.796875 0.890625q0.15625 0.390625 0.15625 1.59375l0 2.84375q0 1.1875 0.046875 1.453125q0.046875 0.265625 0.140625 0.359375q0.109375 0.09375 0.25 0.09375q0.140625 0 0.25 -0.0625q0.203125 -0.125 0.75 -0.671875l0 0.515625q-1.03125 1.359375 -1.953125 1.359375q-0.453125 0 -0.71875 -0.296875q-0.265625 -0.3125 -0.265625 -1.0625zm0 -0.59375l0 -3.171875q-1.375 0.546875 -1.78125 0.765625q-0.71875 0.40625 -1.03125 0.84375q-0.296875 0.4375 -0.296875 0.953125q0 0.65625 0.390625 1.09375q0.390625 0.421875 0.890625 0.421875q0.703125 0 1.828125 -0.90625zm5.9680176 -9.296875l0 2.75l1.953125 0l0 0.640625l-1.953125 0l0 5.40625q0 0.8125 0.234375 1.09375q0.234375 0.28125 0.59375 0.28125q0.3125 0 0.59375 -0.1875q0.28125 -0.1875 0.4375 -0.546875l0.34375 0q-0.3125 0.890625 -0.90625 1.34375q-0.578125 0.453125 -1.1875 0.453125q-0.421875 0 -0.828125 -0.234375q-0.390625 -0.234375 -0.59375 -0.65625q-0.1875 -0.4375 -0.1875 -1.34375l0 -5.609375l-1.3125 0l0 -0.296875q0.5 -0.203125 1.015625 -0.6875q0.53125 -0.484375 0.9375 -1.125q0.203125 -0.359375 0.578125 -1.28125l0.28125 0zm4.886444 -1.859375q0.390625 0 0.65625 0.265625q0.265625 0.265625 0.265625 0.65625q0 0.375 -0.265625 0.65625q-0.265625 0.265625 -0.65625 0.265625q-0.375 0 -0.65625 -0.265625q-0.265625 -0.28125 -0.265625 -0.65625q0 -0.390625 0.265625 -0.65625q0.265625 -0.265625 0.65625 -0.265625zm0.765625 4.359375l0 6.703125q0 0.78125 0.109375 1.046875q0.109375 0.265625 0.328125 0.390625q0.234375 0.125 0.828125 0.125l0 0.328125l-4.0625 0l0 -0.328125q0.609375 0 0.8125 -0.109375q0.21875 -0.125 0.34375 -0.390625q0.125 -0.28125 0.125 -1.0625l0 -3.203125q0 -1.359375 -0.078125 -1.765625q-0.078125 -0.296875 -0.21875 -0.40625q-0.125 -0.109375 -0.359375 -0.109375q-0.265625 0 -0.625 0.140625l-0.125 -0.328125l2.515625 -1.03125l0.40625 0zm4.7301636 1.765625q1.46875 -1.765625 2.796875 -1.765625q0.6875 0 1.171875 0.34375q0.5 0.34375 0.78125 1.125q0.203125 0.546875 0.203125 1.671875l0 3.5625q0 0.796875 0.125 1.078125q0.109375 0.234375 0.328125 0.359375q0.21875 0.125 0.828125 0.125l0 0.328125l-4.125 0l0 -0.328125l0.171875 0q0.578125 0 0.8125 -0.171875q0.234375 -0.1875 0.328125 -0.53125q0.03125 -0.140625 0.03125 -0.859375l0 -3.40625q0 -1.140625 -0.296875 -1.65625q-0.296875 -0.515625 -1.0 -0.515625q-1.078125 0 -2.15625 1.1875l0 4.390625q0 0.859375 0.09375 1.046875q0.140625 0.265625 0.359375 0.390625q0.21875 0.125 0.90625 0.125l0 0.328125l-4.125 0l0 -0.328125l0.171875 0q0.640625 0 0.859375 -0.3125q0.234375 -0.328125 0.234375 -1.25l0 -3.09375q0 -1.5 -0.078125 -1.828125q-0.0625 -0.328125 -0.203125 -0.4375q-0.140625 -0.125 -0.375 -0.125q-0.265625 0 -0.609375 0.140625l-0.140625 -0.328125l2.515625 -1.03125l0.390625 0l0 1.765625zm14.203125 -1.515625l0 5.0625q0 1.4375 0.0625 1.765625q0.078125 0.328125 0.21875 0.453125q0.15625 0.125 0.359375 0.125q0.28125 0 0.640625 -0.15625l0.125 0.3125l-2.484375 1.03125l-0.421875 0l0 -1.765625q-1.078125 1.171875 -1.640625 1.46875q-0.5625 0.296875 -1.1875 0.296875q-0.703125 0 -1.21875 -0.40625q-0.515625 -0.40625 -0.71875 -1.03125q-0.1875 -0.640625 -0.1875 -1.8125l0 -3.71875q0 -0.59375 -0.140625 -0.8125q-0.125 -0.234375 -0.375 -0.359375q-0.25 -0.125 -0.90625 -0.109375l0 -0.34375l2.921875 0l0 5.578125q0 1.171875 0.40625 1.546875q0.40625 0.359375 0.984375 0.359375q0.390625 0 0.890625 -0.25q0.5 -0.25 1.171875 -0.9375l0 -4.734375q0 -0.703125 -0.265625 -0.953125q-0.25 -0.25 -1.0625 -0.265625l0 -0.34375l2.828125 0zm4.5 1.53125q0.90625 -0.90625 1.078125 -1.046875q0.40625 -0.34375 0.875 -0.53125q0.484375 -0.203125 0.9375 -0.203125q0.78125 0 1.34375 0.46875q0.578125 0.453125 0.765625 1.3125q0.9375 -1.09375 1.578125 -1.4375q0.65625 -0.34375 1.34375 -0.34375q0.65625 0 1.171875 0.34375q0.515625 0.34375 0.8125 1.125q0.203125 0.515625 0.203125 1.65625l0 3.578125q0 0.78125 0.125 1.078125q0.078125 0.203125 0.328125 0.34375q0.25 0.140625 0.796875 0.140625l0 0.328125l-4.109375 0l0 -0.328125l0.171875 0q0.53125 0 0.84375 -0.203125q0.203125 -0.15625 0.296875 -0.46875q0.03125 -0.15625 0.03125 -0.890625l0 -3.578125q0 -1.03125 -0.234375 -1.453125q-0.359375 -0.578125 -1.140625 -0.578125q-0.484375 0 -0.984375 0.25q-0.484375 0.234375 -1.171875 0.890625l-0.015625 0.09375l0.015625 0.40625l0 3.96875q0 0.859375 0.09375 1.078125q0.09375 0.203125 0.359375 0.34375q0.265625 0.140625 0.90625 0.140625l0 0.328125l-4.21875 0l0 -0.328125q0.6875 0 0.953125 -0.15625q0.265625 -0.171875 0.359375 -0.5q0.046875 -0.15625 0.046875 -0.90625l0 -3.578125q0 -1.03125 -0.296875 -1.46875q-0.40625 -0.59375 -1.125 -0.59375q-0.5 0 -0.96875 0.265625q-0.765625 0.40625 -1.171875 0.90625l0 4.46875q0 0.828125 0.109375 1.078125q0.109375 0.234375 0.328125 0.359375q0.234375 0.125 0.921875 0.125l0 0.328125l-4.125 0l0 -0.328125q0.5625 0 0.796875 -0.125q0.234375 -0.125 0.34375 -0.390625q0.125 -0.265625 0.125 -1.046875l0 -3.1875q0 -1.375 -0.09375 -1.765625q-0.0625 -0.3125 -0.203125 -0.421875q-0.125 -0.109375 -0.359375 -0.109375q-0.265625 0 -0.609375 0.140625l-0.140625 -0.328125l2.515625 -1.03125l0.390625 0l0 1.78125zm27.347382 -5.828125l0.28125 4.203125l-0.28125 0q-0.5625 -1.890625 -1.609375 -2.71875q-1.046875 -0.828125 -2.515625 -0.828125q-1.234375 0 -2.234375 0.625q-0.984375 0.625 -1.5625 2.0q-0.5625 1.359375 -0.5625 3.390625q0 1.671875 0.53125 2.90625q0.546875 1.234375 1.625 1.890625q1.078125 0.65625 2.46875 0.65625q1.203125 0 2.109375 -0.515625q0.921875 -0.515625 2.03125 -2.046875l0.28125 0.1875q-0.921875 1.640625 -2.171875 2.40625q-1.234375 0.765625 -2.9375 0.765625q-3.078125 0 -4.75 -2.28125q-1.265625 -1.6875 -1.265625 -3.984375q0 -1.84375 0.828125 -3.390625q0.828125 -1.5625 2.28125 -2.40625q1.453125 -0.859375 3.171875 -0.859375q1.34375 0 2.640625 0.65625q0.390625 0.203125 0.546875 0.203125q0.25 0 0.4375 -0.171875q0.234375 -0.25 0.328125 -0.6875l0.328125 0zm6.521698 11.4375q-1.28125 1.0 -1.609375 1.15625q-0.5 0.21875 -1.046875 0.21875q-0.875 0 -1.4375 -0.59375q-0.546875 -0.59375 -0.546875 -1.5625q0 -0.609375 0.265625 -1.046875q0.375 -0.625 1.296875 -1.171875q0.921875 -0.546875 3.078125 -1.328125l0 -0.328125q0 -1.25 -0.40625 -1.703125q-0.390625 -0.46875 -1.140625 -0.46875q-0.578125 0 -0.921875 0.3125q-0.34375 0.296875 -0.34375 0.703125l0.015625 0.53125q0 0.421875 -0.21875 0.65625q-0.203125 0.21875 -0.546875 0.21875q-0.34375 0 -0.5625 -0.234375q-0.203125 -0.234375 -0.203125 -0.65625q0 -0.78125 0.796875 -1.4375q0.8125 -0.65625 2.25 -0.65625q1.109375 0 1.828125 0.375q0.53125 0.28125 0.796875 0.890625q0.15625 0.390625 0.15625 1.59375l0 2.84375q0 1.1875 0.046875 1.453125q0.046875 0.265625 0.140625 0.359375q0.109375 0.09375 0.25 0.09375q0.140625 0 0.25 -0.0625q0.203125 -0.125 0.75 -0.671875l0 0.515625q-1.03125 1.359375 -1.953125 1.359375q-0.453125 0 -0.71875 -0.296875q-0.265625 -0.3125 -0.265625 -1.0625zm0 -0.59375l0 -3.171875q-1.375 0.546875 -1.78125 0.765625q-0.71875 0.40625 -1.03125 0.84375q-0.296875 0.4375 -0.296875 0.953125q0 0.65625 0.390625 1.09375q0.390625 0.421875 0.890625 0.421875q0.703125 0 1.828125 -0.90625zm5.9680176 -9.296875l0 2.75l1.953125 0l0 0.640625l-1.953125 0l0 5.40625q0 0.8125 0.234375 1.09375q0.234375 0.28125 0.59375 0.28125q0.3125 0 0.59375 -0.1875q0.28125 -0.1875 0.4375 -0.546875l0.34375 0q-0.3125 0.890625 -0.90625 1.34375q-0.578125 0.453125 -1.1875 0.453125q-0.421875 0 -0.828125 -0.234375q-0.390625 -0.234375 -0.59375 -0.65625q-0.1875 -0.4375 -0.1875 -1.34375l0 -5.609375l-1.3125 0l0 -0.296875q0.5 -0.203125 1.015625 -0.6875q0.53125 -0.484375 0.9375 -1.125q0.203125 -0.359375 0.578125 -1.28125l0.28125 0zm7.495819 9.890625q-1.28125 1.0 -1.609375 1.15625q-0.5 0.21875 -1.046875 0.21875q-0.875 0 -1.4375 -0.59375q-0.546875 -0.59375 -0.546875 -1.5625q0 -0.609375 0.265625 -1.046875q0.375 -0.625 1.296875 -1.171875q0.921875 -0.546875 3.078125 -1.328125l0 -0.328125q0 -1.25 -0.40625 -1.703125q-0.390625 -0.46875 -1.140625 -0.46875q-0.578125 0 -0.921875 0.3125q-0.34375 0.296875 -0.34375 0.703125l0.015625 0.53125q0 0.421875 -0.21875 0.65625q-0.203125 0.21875 -0.546875 0.21875q-0.34375 0 -0.5625 -0.234375q-0.203125 -0.234375 -0.203125 -0.65625q0 -0.78125 0.796875 -1.4375q0.8125 -0.65625 2.25 -0.65625q1.109375 0 1.828125 0.375q0.53125 0.28125 0.796875 0.890625q0.15625 0.390625 0.15625 1.59375l0 2.84375q0 1.1875 0.046875 1.453125q0.046875 0.265625 0.140625 0.359375q0.109375 0.09375 0.25 0.09375q0.140625 0 0.25 -0.0625q0.203125 -0.125 0.75 -0.671875l0 0.515625q-1.03125 1.359375 -1.953125 1.359375q-0.453125 0 -0.71875 -0.296875q-0.265625 -0.3125 -0.265625 -1.0625zm0 -0.59375l0 -3.171875q-1.375 0.546875 -1.78125 0.765625q-0.71875 0.40625 -1.03125 0.84375q-0.296875 0.4375 -0.296875 0.953125q0 0.65625 0.390625 1.09375q0.390625 0.421875 0.890625 0.421875q0.703125 0 1.828125 -0.90625zm6.4211426 -11.15625l0 11.0625q0 0.78125 0.109375 1.046875q0.125 0.25 0.359375 0.390625q0.234375 0.125 0.875 0.125l0 0.328125l-4.09375 0l0 -0.328125q0.578125 0 0.78125 -0.109375q0.21875 -0.125 0.328125 -0.390625q0.125 -0.28125 0.125 -1.0625l0 -7.578125q0 -1.40625 -0.0625 -1.734375q-0.0625 -0.328125 -0.203125 -0.4375q-0.140625 -0.125 -0.359375 -0.125q-0.234375 0 -0.609375 0.15625l-0.140625 -0.328125l2.484375 -1.015625l0.40625 0zm1.8395691 4.609375l3.890625 0l0 0.34375l-0.1875 0q-0.421875 0 -0.625 0.171875q-0.203125 0.171875 -0.203125 0.4375q0 0.359375 0.296875 0.984375l2.03125 4.203125l1.875 -4.609375q0.15625 -0.359375 0.15625 -0.734375q0 -0.15625 -0.0625 -0.234375q-0.078125 -0.109375 -0.234375 -0.15625q-0.15625 -0.0625 -0.546875 -0.0625l0 -0.34375l2.71875 0l0 0.34375q-0.34375 0.03125 -0.53125 0.140625q-0.171875 0.109375 -0.390625 0.40625q-0.078125 0.125 -0.3125 0.703125l-3.390625 8.328125q-0.5 1.203125 -1.296875 1.828125q-0.796875 0.625 -1.53125 0.625q-0.53125 0 -0.890625 -0.3125q-0.34375 -0.3125 -0.34375 -0.71875q0 -0.375 0.25 -0.609375q0.25 -0.234375 0.6875 -0.234375q0.3125 0 0.828125 0.203125q0.359375 0.140625 0.453125 0.140625q0.28125 0 0.59375 -0.28125q0.328125 -0.28125 0.65625 -1.09375l0.59375 -1.453125l-3.0 -6.296875q-0.140625 -0.28125 -0.4375 -0.703125q-0.234375 -0.3125 -0.375 -0.421875q-0.203125 -0.140625 -0.671875 -0.25l0 -0.34375zm12.2187195 -2.75l0 2.75l1.953125 0l0 0.640625l-1.953125 0l0 5.40625q0 0.8125 0.234375 1.09375q0.234375 0.28125 0.59375 0.28125q0.3125 0 0.59375 -0.1875q0.28125 -0.1875 0.4375 -0.546875l0.34375 0q-0.3125 0.890625 -0.90625 1.34375q-0.578125 0.453125 -1.1875 0.453125q-0.421875 0 -0.828125 -0.234375q-0.390625 -0.234375 -0.59375 -0.65625q-0.1875 -0.4375 -0.1875 -1.34375l0 -5.609375l-1.3124695 0l0 -0.296875q0.49996948 -0.203125 1.0155945 -0.6875q0.53125 -0.484375 0.9375 -1.125q0.203125 -0.359375 0.578125 -1.28125l0.28125 0zm4.8864746 -1.859375q0.390625 0 0.65625 0.265625q0.265625 0.265625 0.265625 0.65625q0 0.375 -0.265625 0.65625q-0.265625 0.265625 -0.65625 0.265625q-0.375 0 -0.65625 -0.265625q-0.265625 -0.28125 -0.265625 -0.65625q0 -0.390625 0.265625 -0.65625q0.265625 -0.265625 0.65625 -0.265625zm0.765625 4.359375l0 6.703125q0 0.78125 0.109375 1.046875q0.109375 0.265625 0.328125 0.390625q0.234375 0.125 0.828125 0.125l0 0.328125l-4.0625 0l0 -0.328125q0.609375 0 0.8125 -0.109375q0.21875 -0.125 0.34375 -0.390625q0.125 -0.28125 0.125 -1.0625l0 -3.203125q0 -1.359375 -0.078125 -1.765625q-0.078125 -0.296875 -0.21875 -0.40625q-0.125 -0.109375 -0.359375 -0.109375q-0.265625 0 -0.625 0.140625l-0.125 -0.328125l2.515625 -1.03125l0.40625 0zm9.386414 5.421875q-0.34375 1.65625 -1.328125 2.546875q-0.984375 0.875 -2.171875 0.875q-1.421875 0 -2.484375 -1.1875q-1.046875 -1.1875 -1.046875 -3.21875q0 -1.96875 1.171875 -3.203125q1.171875 -1.234375 2.8125 -1.234375q1.21875 0 2.015625 0.65625q0.796875 0.65625 0.796875 1.34375q0 0.359375 -0.234375 0.578125q-0.21875 0.203125 -0.609375 0.203125q-0.546875 0 -0.8125 -0.34375q-0.15625 -0.1875 -0.21875 -0.71875q-0.046875 -0.546875 -0.359375 -0.828125q-0.328125 -0.28125 -0.890625 -0.28125q-0.90625 0 -1.46875 0.671875q-0.734375 0.90625 -0.734375 2.359375q0 1.5 0.734375 2.640625q0.734375 1.140625 1.984375 1.140625q0.890625 0 1.609375 -0.609375q0.5 -0.421875 0.96875 -1.515625l0.265625 0.125zm13.81958 -9.46875l0 4.28125l-0.328125 0q-0.171875 -1.234375 -0.59375 -1.953125q-0.421875 -0.734375 -1.203125 -1.15625q-0.78125 -0.4375 -1.625 -0.4375q-0.9375 0 -1.5625 0.578125q-0.625 0.578125 -0.625 1.3125q0 0.5625 0.390625 1.03125q0.578125 0.6875 2.6875 1.828125q1.734375 0.921875 2.359375 1.421875q0.640625 0.5 0.984375 1.171875q0.34375 0.671875 0.34375 1.40625q0 1.40625 -1.09375 2.421875q-1.078125 1.015625 -2.796875 1.015625q-0.53125 0 -1.015625 -0.078125q-0.28125 -0.046875 -1.171875 -0.328125q-0.890625 -0.296875 -1.125 -0.296875q-0.21875 0 -0.359375 0.140625q-0.125 0.140625 -0.1875 0.5625l-0.34375 0l0 -4.234375l0.34375 0q0.234375 1.328125 0.625 2.0q0.40625 0.65625 1.234375 1.09375q0.828125 0.4375 1.8125 0.4375q1.140625 0 1.796875 -0.59375q0.65625 -0.609375 0.65625 -1.4375q0 -0.453125 -0.25 -0.90625q-0.25 -0.46875 -0.78125 -0.875q-0.34375 -0.28125 -1.9375 -1.15625q-1.578125 -0.890625 -2.25 -1.421875q-0.671875 -0.53125 -1.015625 -1.171875q-0.34375 -0.640625 -0.34375 -1.390625q0 -1.34375 1.015625 -2.296875q1.015625 -0.96875 2.59375 -0.96875q0.984375 0 2.09375 0.484375q0.5 0.234375 0.71875 0.234375q0.234375 0 0.375 -0.140625q0.15625 -0.140625 0.25 -0.578125l0.328125 0zm9.719482 4.296875l0 5.0625q0 1.4375 0.0625 1.765625q0.078125 0.328125 0.21875 0.453125q0.15625 0.125 0.359375 0.125q0.28125 0 0.640625 -0.15625l0.125 0.3125l-2.484375 1.03125l-0.421875 0l0 -1.765625q-1.078125 1.171875 -1.640625 1.46875q-0.5625 0.296875 -1.1875 0.296875q-0.703125 0 -1.21875 -0.40625q-0.515625 -0.40625 -0.71875 -1.03125q-0.1875 -0.640625 -0.1875 -1.8125l0 -3.71875q0 -0.59375 -0.140625 -0.8125q-0.125 -0.234375 -0.375 -0.359375q-0.25 -0.125 -0.90625 -0.109375l0 -0.34375l2.921875 0l0 5.578125q0 1.171875 0.40625 1.546875q0.40625 0.359375 0.984375 0.359375q0.390625 0 0.890625 -0.25q0.5 -0.25 1.171875 -0.9375l0 -4.734375q0 -0.703125 -0.265625 -0.953125q-0.25 -0.25 -1.0625 -0.265625l0 -0.34375l2.828125 0zm4.46875 -0.25l0 1.875q1.046875 -1.875 2.140625 -1.875q0.5 0 0.828125 0.3125q0.328125 0.296875 0.328125 0.703125q0 0.359375 -0.234375 0.609375q-0.234375 0.234375 -0.5625 0.234375q-0.328125 0 -0.71875 -0.3125q-0.390625 -0.3125 -0.578125 -0.3125q-0.171875 0 -0.359375 0.1875q-0.40625 0.359375 -0.84375 1.21875l0 4.0q0 0.703125 0.171875 1.046875q0.109375 0.25 0.40625 0.421875q0.3125 0.15625 0.875 0.15625l0 0.328125l-4.28125 0l0 -0.328125q0.640625 0 0.953125 -0.203125q0.234375 -0.140625 0.3125 -0.46875q0.046875 -0.140625 0.046875 -0.875l0 -3.234375q0 -1.453125 -0.0625 -1.734375q-0.046875 -0.28125 -0.21875 -0.40625q-0.15625 -0.125 -0.390625 -0.125q-0.28125 0 -0.640625 0.140625l-0.078125 -0.328125l2.515625 -1.03125l0.390625 0zm7.0251465 0.90625l0 5.484375q0 1.171875 0.25 1.46875q0.34375 0.40625 0.90625 0.40625l0.75 0l0 0.328125l-4.96875 0l0 -0.328125l0.359375 0q0.375 0 0.671875 -0.171875q0.296875 -0.1875 0.40625 -0.5q0.125 -0.3125 0.125 -1.203125l0 -5.484375l-1.625 0l0 -0.65625l1.625 0l0 -0.546875q0 -1.25 0.390625 -2.109375q0.40625 -0.875 1.234375 -1.40625q0.828125 -0.53125 1.859375 -0.53125q0.953125 0 1.75 0.625q0.53125 0.40625 0.53125 0.921875q0 0.265625 -0.234375 0.515625q-0.234375 0.234375 -0.515625 0.234375q-0.203125 0 -0.4375 -0.140625q-0.234375 -0.15625 -0.578125 -0.65625q-0.328125 -0.5 -0.609375 -0.671875q-0.28125 -0.171875 -0.640625 -0.171875q-0.40625 0 -0.703125 0.234375q-0.296875 0.21875 -0.421875 0.6875q-0.125 0.46875 -0.125 2.40625l0 0.609375l2.15625 0l0 0.65625l-2.15625 0zm7.6814575 6.484375q-1.28125 1.0 -1.609375 1.15625q-0.5 0.21875 -1.046875 0.21875q-0.875 0 -1.4375 -0.59375q-0.546875 -0.59375 -0.546875 -1.5625q0 -0.609375 0.265625 -1.046875q0.375 -0.625 1.296875 -1.171875q0.921875 -0.546875 3.078125 -1.328125l0 -0.328125q0 -1.25 -0.40625 -1.703125q-0.390625 -0.46875 -1.140625 -0.46875q-0.578125 0 -0.921875 0.3125q-0.34375 0.296875 -0.34375 0.703125l0.015625 0.53125q0 0.421875 -0.21875 0.65625q-0.203125 0.21875 -0.546875 0.21875q-0.34375 0 -0.5625 -0.234375q-0.203125 -0.234375 -0.203125 -0.65625q0 -0.78125 0.796875 -1.4375q0.8125 -0.65625 2.25 -0.65625q1.109375 0 1.828125 0.375q0.53125 0.28125 0.796875 0.890625q0.15625 0.390625 0.15625 1.59375l0 2.84375q0 1.1875 0.046875 1.453125q0.046875 0.265625 0.140625 0.359375q0.109375 0.09375 0.25 0.09375q0.140625 0 0.25 -0.0625q0.203125 -0.125 0.75 -0.671875l0 0.515625q-1.03125 1.359375 -1.953125 1.359375q-0.453125 0 -0.71875 -0.296875q-0.265625 -0.3125 -0.265625 -1.0625zm0 -0.59375l0 -3.171875q-1.375 0.546875 -1.78125 0.765625q-0.71875 0.40625 -1.03125 0.84375q-0.296875 0.4375 -0.296875 0.953125q0 0.65625 0.390625 1.09375q0.390625 0.421875 0.890625 0.421875q0.703125 0 1.828125 -0.90625zm10.639893 -1.375q-0.34375 1.65625 -1.328125 2.546875q-0.984375 0.875 -2.171875 0.875q-1.421875 0 -2.484375 -1.1875q-1.046875 -1.1875 -1.046875 -3.21875q0 -1.96875 1.171875 -3.203125q1.171875 -1.234375 2.8125 -1.234375q1.21875 0 2.015625 0.65625q0.796875 0.65625 0.796875 1.34375q0 0.359375 -0.234375 0.578125q-0.21875 0.203125 -0.609375 0.203125q-0.546875 0 -0.8125 -0.34375q-0.15625 -0.1875 -0.21875 -0.71875q-0.046875 -0.546875 -0.359375 -0.828125q-0.328125 -0.28125 -0.890625 -0.28125q-0.90625 0 -1.46875 0.671875q-0.734375 0.90625 -0.734375 2.359375q0 1.5 0.734375 2.640625q0.734375 1.140625 1.984375 1.140625q0.890625 0 1.609375 -0.609375q0.5 -0.421875 0.96875 -1.515625l0.265625 0.125zm2.5930176 -2.03125q0 1.859375 0.90625 2.921875q0.90625 1.046875 2.140625 1.046875q0.8125 0 1.421875 -0.4375q0.609375 -0.453125 1.015625 -1.546875l0.28125 0.171875q-0.1875 1.25 -1.109375 2.28125q-0.921875 1.015625 -2.296875 1.015625q-1.515625 0 -2.59375 -1.171875q-1.0625 -1.171875 -1.0625 -3.140625q0 -2.140625 1.09375 -3.328125q1.109375 -1.203125 2.765625 -1.203125q1.40625 0 2.296875 0.921875q0.90625 0.921875 0.90625 2.46875l-5.765625 0zm0 -0.53125l3.859375 0q-0.046875 -0.796875 -0.1875 -1.125q-0.234375 -0.515625 -0.6875 -0.796875q-0.4375 -0.296875 -0.9375 -0.296875q-0.75 0 -1.34375 0.59375q-0.59375 0.578125 -0.703125 1.625zm16.757141 9.390625l0 0.328125q-1.375 -0.6875 -2.296875 -1.609375q-1.3125 -1.328125 -2.03125 -3.125q-0.703125 -1.796875 -0.703125 -3.71875q0 -2.828125 1.390625 -5.15625q1.390625 -2.328125 3.640625 -3.328125l0 0.375q-1.125 0.625 -1.84375 1.703125q-0.71875 1.078125 -1.078125 2.734375q-0.359375 1.640625 -0.359375 3.4375q0 1.9375 0.3125 3.53125q0.234375 1.265625 0.5625 2.015625q0.34375 0.765625 0.90625 1.46875q0.578125 0.703125 1.5 1.34375zm4.2595215 -11.34375l0 5.484375q0 1.171875 0.25 1.46875q0.34375 0.40625 0.90625 0.40625l0.75 0l0 0.328125l-4.96875 0l0 -0.328125l0.359375 0q0.375 0 0.671875 -0.171875q0.296875 -0.1875 0.40625 -0.5q0.125 -0.3125 0.125 -1.203125l0 -5.484375l-1.625 0l0 -0.65625l1.625 0l0 -0.546875q0 -1.25 0.390625 -2.109375q0.40625 -0.875 1.234375 -1.40625q0.828125 -0.53125 1.859375 -0.53125q0.953125 0 1.75 0.625q0.53125 0.40625 0.53125 0.921875q0 0.265625 -0.234375 0.515625q-0.234375 0.234375 -0.515625 0.234375q-0.203125 0 -0.4375 -0.140625q-0.234375 -0.15625 -0.578125 -0.65625q-0.328125 -0.5 -0.609375 -0.671875q-0.28125 -0.171875 -0.640625 -0.171875q-0.40625 0 -0.703125 0.234375q-0.296875 0.21875 -0.421875 0.6875q-0.125 0.46875 -0.125 2.40625l0 0.609375l2.15625 0l0 0.65625l-2.15625 0zm5.8220825 -5.265625l0 11.0625q0 0.78125 0.109375 1.046875q0.125 0.25 0.359375 0.390625q0.234375 0.125 0.875 0.125l0 0.328125l-4.09375 0l0 -0.328125q0.578125 0 0.78125 -0.109375q0.21875 -0.125 0.328125 -0.390625q0.125 -0.28125 0.125 -1.0625l0 -7.578125q0 -1.40625 -0.0625 -1.734375q-0.0625 -0.328125 -0.203125 -0.4375q-0.140625 -0.125 -0.359375 -0.125q-0.234375 0 -0.609375 0.15625l-0.140625 -0.328125l2.484375 -1.015625l0.40625 0zm6.4020386 4.359375q1.890625 0 3.03125 1.4375q0.984375 1.234375 0.984375 2.828125q0 1.125 -0.546875 2.28125q-0.53125 1.140625 -1.484375 1.71875q-0.9375 0.578125 -2.09375 0.578125q-1.890625 0 -3.0 -1.5q-0.9375 -1.265625 -0.9375 -2.84375q0 -1.140625 0.5625 -2.265625q0.578125 -1.140625 1.5 -1.6875q0.9375 -0.546875 1.984375 -0.546875zm-0.296875 0.59375q-0.46875 0 -0.96875 0.296875q-0.484375 0.28125 -0.78125 1.0q-0.296875 0.71875 -0.296875 1.84375q0 1.828125 0.71875 3.15625q0.71875 1.3125 1.90625 1.3125q0.890625 0 1.453125 -0.71875q0.578125 -0.734375 0.578125 -2.515625q0 -2.21875 -0.953125 -3.5q-0.640625 -0.875 -1.65625 -0.875zm9.625 -0.59375q1.890625 0 3.03125 1.4375q0.984375 1.234375 0.984375 2.828125q0 1.125 -0.546875 2.28125q-0.53125 1.140625 -1.484375 1.71875q-0.9375 0.578125 -2.09375 0.578125q-1.890625 0 -3.0 -1.5q-0.9375 -1.265625 -0.9375 -2.84375q0 -1.140625 0.5625 -2.265625q0.578125 -1.140625 1.5 -1.6875q0.9375 -0.546875 1.984375 -0.546875zm-0.296875 0.59375q-0.46875 0 -0.96875 0.296875q-0.484375 0.28125 -0.78125 1.0q-0.296875 0.71875 -0.296875 1.84375q0 1.828125 0.71875 3.15625q0.71875 1.3125 1.90625 1.3125q0.890625 0 1.453125 -0.71875q0.578125 -0.734375 0.578125 -2.515625q0 -2.21875 -0.953125 -3.5q-0.640625 -0.875 -1.65625 -0.875zm7.984375 -0.59375l0 1.875q1.046875 -1.875 2.140625 -1.875q0.5 0 0.828125 0.3125q0.328125 0.296875 0.328125 0.703125q0 0.359375 -0.234375 0.609375q-0.234375 0.234375 -0.5625 0.234375q-0.328125 0 -0.71875 -0.3125q-0.390625 -0.3125 -0.578125 -0.3125q-0.171875 0 -0.359375 0.1875q-0.40625 0.359375 -0.84375 1.21875l0 4.0q0 0.703125 0.171875 1.046875q0.109375 0.25 0.40625 0.421875q0.3125 0.15625 0.875 0.15625l0 0.328125l-4.28125 0l0 -0.328125q0.640625 0 0.953125 -0.203125q0.234375 -0.140625 0.3125 -0.46875q0.046875 -0.140625 0.046875 -0.875l0 -3.234375q0 -1.453125 -0.0625 -1.734375q-0.046875 -0.28125 -0.21875 -0.40625q-0.15625 -0.125 -0.390625 -0.125q-0.28125 0 -0.640625 0.140625l-0.078125 -0.328125l2.515625 -1.03125l0.390625 0zm3.6032715 -3.984375l0 -0.375q1.375 0.6875 2.296875 1.609375q1.3125 1.328125 2.015625 3.125q0.71875 1.78125 0.71875 3.734375q0 2.8125 -1.390625 5.140625q-1.390625 2.328125 -3.640625 3.328125l0 -0.328125q1.125 -0.625 1.84375 -1.703125q0.71875 -1.0625 1.0625 -2.71875q0.359375 -1.65625 0.359375 -3.453125q0 -1.9375 -0.296875 -3.546875q-0.234375 -1.25 -0.578125 -2.0q-0.328125 -0.765625 -0.90625 -1.46875q-0.5625 -0.703125 -1.484375 -1.34375z" fill-rule="nonzero"/><path fill="#000000" fill-opacity="0.0" d="m391.08136 161.57742l257.29132 0l0 42.015747l-257.29132 0z" fill-rule="evenodd"/><path fill="#000000" d="m399.83136 176.13805l3.359375 0l7.546875 9.265625l0 -7.125q0 -1.125 -0.25 -1.421875q-0.34375 -0.375 -1.0625 -0.375l-0.4375 0l0 -0.34375l4.296875 0l0 0.34375l-0.4375 0q-0.78125 0 -1.109375 0.46875q-0.203125 0.296875 -0.203125 1.328125l0 10.421875l-0.328125 0l-8.140625 -9.953125l0 7.609375q0 1.140625 0.25 1.421875q0.34375 0.375 1.0625 0.375l0.4375 0l0 0.34375l-4.296875 0l0 -0.34375l0.421875 0q0.796875 0 1.125 -0.46875q0.203125 -0.296875 0.203125 -1.328125l0 -8.59375q-0.53125 -0.625 -0.8125 -0.828125q-0.28125 -0.203125 -0.8125 -0.375q-0.265625 -0.078125 -0.8125 -0.078125l0 -0.34375zm18.394836 3.765625q1.890625 0 3.03125 1.4375q0.984375 1.234375 0.984375 2.828125q0 1.125 -0.546875 2.28125q-0.53125 1.140625 -1.484375 1.71875q-0.9375 0.578125 -2.09375 0.578125q-1.890625 0 -3.0 -1.5q-0.9375 -1.265625 -0.9375 -2.84375q0 -1.140625 0.5625 -2.265625q0.578125 -1.140625 1.5 -1.6875q0.9375 -0.546875 1.984375 -0.546875zm-0.296875 0.59375q-0.46875 0 -0.96875 0.296875q-0.484375 0.28125 -0.78125 1.0q-0.296875 0.71875 -0.296875 1.84375q0 1.828125 0.71875 3.15625q0.71875 1.3125 1.90625 1.3125q0.890625 0 1.453125 -0.71875q0.578125 -0.734375 0.578125 -2.515625q0 -2.21875 -0.953125 -3.5q-0.640625 -0.875 -1.65625 -0.875zm7.96875 1.171875q1.46875 -1.765625 2.796875 -1.765625q0.6875 0 1.171875 0.34375q0.5 0.34375 0.78125 1.125q0.203125 0.546875 0.203125 1.671875l0 3.5625q0 0.796875 0.125 1.078125q0.109375 0.234375 0.328125 0.359375q0.21875 0.125 0.828125 0.125l0 0.328125l-4.125 0l0 -0.328125l0.171875 0q0.578125 0 0.8125 -0.171875q0.234375 -0.1875 0.328125 -0.53125q0.03125 -0.140625 0.03125 -0.859375l0 -3.40625q0 -1.140625 -0.296875 -1.65625q-0.296875 -0.515625 -1.0 -0.515625q-1.078125 0 -2.15625 1.1875l0 4.390625q0 0.859375 0.09375 1.046875q0.140625 0.265625 0.359375 0.390625q0.21875 0.125 0.90625 0.125l0 0.328125l-4.125 0l0 -0.328125l0.171875 0q0.640625 0 0.859375 -0.3125q0.234375 -0.328125 0.234375 -1.25l0 -3.09375q0 -1.5 -0.078125 -1.828125q-0.0625 -0.328125 -0.203125 -0.4375q-0.140625 -0.125 -0.375 -0.125q-0.265625 0 -0.609375 0.140625l-0.140625 -0.328125l2.515625 -1.03125l0.390625 0l0 1.765625zm7.0625 1.953125l4.71875 0l0 1.375l-4.71875 0l0 -1.375zm9.290802 -0.90625l0 3.59375q0 1.171875 0.25 1.453125q0.34375 0.390625 1.046875 0.390625l0.484375 0l0 0.34375l-5.296875 0l0 -0.34375l0.46875 0q0.78125 0 1.109375 -0.5q0.1875 -0.28125 0.1875 -1.34375l0 -7.984375q0 -1.15625 -0.25 -1.4375q-0.359375 -0.40625 -1.046875 -0.40625l-0.46875 0l0 -0.34375l4.53125 0q1.65625 0 2.609375 0.34375q0.953125 0.34375 1.609375 1.15625q0.65625 0.8125 0.65625 1.921875q0 1.515625 -1.0 2.46875q-1.0 0.9375 -2.8125 0.9375q-0.453125 0 -0.96875 -0.0625q-0.515625 -0.0625 -1.109375 -0.1875zm0 -0.515625q0.484375 0.078125 0.859375 0.125q0.375 0.046875 0.625 0.046875q0.953125 0 1.640625 -0.734375q0.6875 -0.734375 0.6875 -1.890625q0 -0.8125 -0.328125 -1.5q-0.328125 -0.6875 -0.9375 -1.015625q-0.59375 -0.34375 -1.359375 -0.34375q-0.453125 0 -1.1875 0.171875l0 5.140625zm8.531952 1.09375q0 1.859375 0.90625 2.921875q0.90625 1.046875 2.140625 1.046875q0.8125 0 1.421875 -0.4375q0.609375 -0.453125 1.015625 -1.546875l0.28125 0.171875q-0.1875 1.25 -1.109375 2.28125q-0.921875 1.015625 -2.296875 1.015625q-1.515625 0 -2.59375 -1.171875q-1.0625 -1.171875 -1.0625 -3.140625q0 -2.140625 1.09375 -3.328125q1.109375 -1.203125 2.765625 -1.203125q1.40625 0 2.296875 0.921875q0.90625 0.921875 0.90625 2.46875l-5.765625 0zm0 -0.53125l3.859375 0q-0.046875 -0.796875 -0.1875 -1.125q-0.234375 -0.515625 -0.6875 -0.796875q-0.4375 -0.296875 -0.9375 -0.296875q-0.75 0 -1.34375 0.59375q-0.59375 0.578125 -0.703125 1.625zm9.327423 -2.859375l0 1.875q1.046875 -1.875 2.140625 -1.875q0.5 0 0.828125 0.3125q0.328125 0.296875 0.328125 0.703125q0 0.359375 -0.234375 0.609375q-0.234375 0.234375 -0.5625 0.234375q-0.328125 0 -0.71875 -0.3125q-0.390625 -0.3125 -0.578125 -0.3125q-0.171875 0 -0.359375 0.1875q-0.40625 0.359375 -0.84375 1.21875l0 4.0q0 0.703125 0.171875 1.046875q0.109375 0.25 0.40625 0.421875q0.3125 0.15625 0.875 0.15625l0 0.328125l-4.28125 0l0 -0.328125q0.640625 0 0.953125 -0.203125q0.234375 -0.140625 0.3125 -0.46875q0.046875 -0.140625 0.046875 -0.875l0 -3.234375q0 -1.453125 -0.0625 -1.734375q-0.046875 -0.28125 -0.21875 -0.40625q-0.15625 -0.125 -0.390625 -0.125q-0.28125 0 -0.640625 0.140625l-0.078125 -0.328125l2.515625 -1.03125l0.390625 0zm6.243927 1.78125q0.90625 -0.90625 1.078125 -1.046875q0.40625 -0.34375 0.875 -0.53125q0.484375 -0.203125 0.9375 -0.203125q0.78125 0 1.34375 0.46875q0.578125 0.453125 0.765625 1.3125q0.9375 -1.09375 1.578125 -1.4375q0.65625 -0.34375 1.34375 -0.34375q0.65625 0 1.171875 0.34375q0.515625 0.34375 0.8125 1.125q0.203125 0.515625 0.203125 1.65625l0 3.578125q0 0.78125 0.125 1.078125q0.078125 0.203125 0.328125 0.34375q0.25 0.140625 0.796875 0.140625l0 0.328125l-4.109375 0l0 -0.328125l0.171875 0q0.53125 0 0.84375 -0.203125q0.203125 -0.15625 0.296875 -0.46875q0.03125 -0.15625 0.03125 -0.890625l0 -3.578125q0 -1.03125 -0.234375 -1.453125q-0.359375 -0.578125 -1.140625 -0.578125q-0.484375 0 -0.984375 0.25q-0.484375 0.234375 -1.171875 0.890625l-0.015625 0.09375l0.015625 0.40625l0 3.96875q0 0.859375 0.09375 1.078125q0.09375 0.203125 0.359375 0.34375q0.265625 0.140625 0.90625 0.140625l0 0.328125l-4.21875 0l0 -0.328125q0.6875 0 0.953125 -0.15625q0.265625 -0.171875 0.359375 -0.5q0.046875 -0.15625 0.046875 -0.90625l0 -3.578125q0 -1.03125 -0.296875 -1.46875q-0.40625 -0.59375 -1.125 -0.59375q-0.5 0 -0.96875 0.265625q-0.765625 0.40625 -1.171875 0.90625l0 4.46875q0 0.828125 0.109375 1.078125q0.109375 0.234375 0.328125 0.359375q0.234375 0.125 0.921875 0.125l0 0.328125l-4.125 0l0 -0.328125q0.5625 0 0.796875 -0.125q0.234375 -0.125 0.34375 -0.390625q0.125 -0.265625 0.125 -1.046875l0 -3.1875q0 -1.375 -0.09375 -1.765625q-0.0625 -0.3125 -0.203125 -0.421875q-0.125 -0.109375 -0.359375 -0.109375q-0.265625 0 -0.609375 0.140625l-0.140625 -0.328125l2.515625 -1.03125l0.390625 0l0 1.78125zm13.433289 1.609375q0 1.859375 0.90625 2.921875q0.90625 1.046875 2.140625 1.046875q0.8125 0 1.421875 -0.4375q0.609375 -0.453125 1.015625 -1.546875l0.28125 0.171875q-0.1875 1.25 -1.109375 2.28125q-0.921875 1.015625 -2.296875 1.015625q-1.515625 0 -2.59375 -1.171875q-1.0625 -1.171875 -1.0625 -3.140625q0 -2.140625 1.09375 -3.328125q1.109375 -1.203125 2.765625 -1.203125q1.40625 0 2.296875 0.921875q0.90625 0.921875 0.90625 2.46875l-5.765625 0zm0 -0.53125l3.859375 0q-0.046875 -0.796875 -0.1875 -1.125q-0.234375 -0.515625 -0.6875 -0.796875q-0.4375 -0.296875 -0.9375 -0.296875q-0.75 0 -1.34375 0.59375q-0.59375 0.578125 -0.703125 1.625zm11.608673 4.53125q-1.28125 1.0 -1.609375 1.15625q-0.5 0.21875 -1.046875 0.21875q-0.875 0 -1.4375 -0.59375q-0.546875 -0.59375 -0.546875 -1.5625q0 -0.609375 0.265625 -1.046875q0.375 -0.625 1.296875 -1.171875q0.921875 -0.546875 3.078125 -1.328125l0 -0.328125q0 -1.25 -0.40625 -1.703125q-0.390625 -0.46875 -1.140625 -0.46875q-0.578125 0 -0.921875 0.3125q-0.34375 0.296875 -0.34375 0.703125l0.015625 0.53125q0 0.421875 -0.21875 0.65625q-0.203125 0.21875 -0.546875 0.21875q-0.34375 0 -0.5625 -0.234375q-0.203125 -0.234375 -0.203125 -0.65625q0 -0.78125 0.796875 -1.4375q0.8125 -0.65625 2.25 -0.65625q1.109375 0 1.828125 0.375q0.53125 0.28125 0.796875 0.890625q0.15625 0.390625 0.15625 1.59375l0 2.84375q0 1.1875 0.046875 1.453125q0.046875 0.265625 0.140625 0.359375q0.109375 0.09375 0.25 0.09375q0.140625 0 0.25 -0.0625q0.203125 -0.125 0.75 -0.671875l0 0.515625q-1.03125 1.359375 -1.953125 1.359375q-0.453125 0 -0.71875 -0.296875q-0.265625 -0.3125 -0.265625 -1.0625zm0 -0.59375l0 -3.171875q-1.375 0.546875 -1.78125 0.765625q-0.71875 0.40625 -1.03125 0.84375q-0.296875 0.4375 -0.296875 0.953125q0 0.65625 0.390625 1.09375q0.390625 0.421875 0.890625 0.421875q0.703125 0 1.828125 -0.90625zm5.8430176 -5.109375q1.203125 -1.6875 2.609375 -1.6875q1.28125 0 2.234375 1.109375q0.96875 1.09375 0.96875 3.0q0 2.21875 -1.484375 3.578125q-1.265625 1.15625 -2.828125 1.15625q-0.71875 0 -1.46875 -0.25q-0.75 -0.265625 -1.546875 -0.796875l0 -8.65625q0 -1.421875 -0.0625 -1.75q-0.0625 -0.328125 -0.21875 -0.4375q-0.140625 -0.125 -0.359375 -0.125q-0.25 0 -0.640625 0.15625l-0.125 -0.328125l2.5 -1.015625l0.421875 0l0 6.046875zm0 0.578125l0 5.0q0.453125 0.453125 0.953125 0.6875q0.5 0.234375 1.015625 0.234375q0.828125 0 1.546875 -0.90625q0.71875 -0.921875 0.71875 -2.65625q0 -1.609375 -0.71875 -2.46875q-0.71875 -0.859375 -1.625 -0.859375q-0.484375 0 -0.96875 0.25q-0.359375 0.171875 -0.921875 0.71875zm9.90625 -6.625l0 11.0625q0 0.78125 0.109375 1.046875q0.125 0.25 0.359375 0.390625q0.234375 0.125 0.875 0.125l0 0.328125l-4.09375 0l0 -0.328125q0.578125 0 0.78125 -0.109375q0.21875 -0.125 0.328125 -0.390625q0.125 -0.28125 0.125 -1.0625l0 -7.578125q0 -1.40625 -0.0625 -1.734375q-0.0625 -0.328125 -0.203125 -0.4375q-0.140625 -0.125 -0.359375 -0.125q-0.234375 0 -0.609375 0.15625l-0.140625 -0.328125l2.484375 -1.015625l0.40625 0zm3.714569 7.75q0 1.859375 0.90625 2.921875q0.90625 1.046875 2.140625 1.046875q0.8125 0 1.421875 -0.4375q0.609375 -0.453125 1.015625 -1.546875l0.28125 0.171875q-0.1875 1.25 -1.109375 2.28125q-0.921875 1.015625 -2.296875 1.015625q-1.515625 0 -2.59375 -1.171875q-1.0625 -1.171875 -1.0625 -3.140625q0 -2.140625 1.09375 -3.328125q1.109375 -1.203125 2.765625 -1.203125q1.40625 0 2.296875 0.921875q0.90625 0.921875 0.90625 2.46875l-5.765625 0zm0 -0.53125l3.859375 0q-0.046875 -0.796875 -0.1875 -1.125q-0.234375 -0.515625 -0.6875 -0.796875q-0.4375 -0.296875 -0.9375 -0.296875q-0.75 0 -1.34375 0.59375q-0.59375 0.578125 -0.703125 1.625zm28.091736 -6.625l0 0.34375q-0.484375 0 -0.796875 0.171875q-0.296875 0.171875 -0.5625 0.640625q-0.1875 0.328125 -0.578125 1.53125l-3.4375 9.953125l-0.375 0l-2.8125 -7.890625l-2.796875 7.890625l-0.328125 0l-3.671875 -10.25q-0.40625 -1.15625 -0.515625 -1.359375q-0.1875 -0.34375 -0.5 -0.515625q-0.3125 -0.171875 -0.84375 -0.171875l0 -0.34375l4.5625 0l0 0.34375l-0.21875 0q-0.46875 0 -0.734375 0.21875q-0.25 0.21875 -0.25 0.53125q0 0.3125 0.40625 1.46875l2.421875 6.921875l2.046875 -5.890625l-0.359375 -1.03125l-0.296875 -0.828125q-0.1875 -0.46875 -0.421875 -0.8125q-0.125 -0.171875 -0.296875 -0.28125q-0.21875 -0.171875 -0.453125 -0.234375q-0.171875 -0.0625 -0.546875 -0.0625l0 -0.34375l4.8125 0l0 0.34375l-0.328125 0q-0.515625 0 -0.75 0.21875q-0.234375 0.21875 -0.234375 0.59375q0 0.46875 0.40625 1.625l2.375 6.703125l2.34375 -6.796875q0.40625 -1.125 0.40625 -1.5625q0 -0.21875 -0.140625 -0.390625q-0.125 -0.1875 -0.328125 -0.265625q-0.34375 -0.125 -0.890625 -0.125l0 -0.34375l3.6875 0zm3.9575806 11.15625q-1.28125 1.0 -1.609375 1.15625q-0.5 0.21875 -1.046875 0.21875q-0.875 0 -1.4375 -0.59375q-0.546875 -0.59375 -0.546875 -1.5625q0 -0.609375 0.265625 -1.046875q0.375 -0.625 1.296875 -1.171875q0.921875 -0.546875 3.078125 -1.328125l0 -0.328125q0 -1.25 -0.40625 -1.703125q-0.390625 -0.46875 -1.140625 -0.46875q-0.578125 0 -0.921875 0.3125q-0.34375 0.296875 -0.34375 0.703125l0.015625 0.53125q0 0.421875 -0.21875 0.65625q-0.203125 0.21875 -0.546875 0.21875q-0.34375 0 -0.5625 -0.234375q-0.203125 -0.234375 -0.203125 -0.65625q0 -0.78125 0.796875 -1.4375q0.8125 -0.65625 2.25 -0.65625q1.109375 0 1.828125 0.375q0.53125 0.28125 0.796875 0.890625q0.15625 0.390625 0.15625 1.59375l0 2.84375q0 1.1875 0.046875 1.453125q0.046875 0.265625 0.140625 0.359375q0.109375 0.09375 0.25 0.09375q0.140625 0 0.25 -0.0625q0.203125 -0.125 0.75 -0.671875l0 0.515625q-1.03125 1.359375 -1.953125 1.359375q-0.453125 0 -0.71875 -0.296875q-0.265625 -0.3125 -0.265625 -1.0625zm0 -0.59375l0 -3.171875q-1.375 0.546875 -1.78125 0.765625q-0.71875 0.40625 -1.03125 0.84375q-0.296875 0.4375 -0.296875 0.953125q0 0.65625 0.390625 1.09375q0.390625 0.421875 0.890625 0.421875q0.703125 0 1.828125 -0.90625zm6.4212036 -11.15625l0 11.0625q0 0.78125 0.109375 1.046875q0.125 0.25 0.359375 0.390625q0.234375 0.125 0.875 0.125l0 0.328125l-4.09375 0l0 -0.328125q0.578125 0 0.78125 -0.109375q0.21875 -0.125 0.328125 -0.390625q0.125 -0.28125 0.125 -1.0625l0 -7.578125q0 -1.40625 -0.0625 -1.734375q-0.0625 -0.328125 -0.203125 -0.4375q-0.140625 -0.125 -0.359375 -0.125q-0.234375 0 -0.609375 0.15625l-0.140625 -0.328125l2.484375 -1.015625l0.40625 0zm5.1832886 0l0 11.0625q0 0.78125 0.109375 1.046875q0.125 0.25 0.359375 0.390625q0.234375 0.125 0.875 0.125l0 0.328125l-4.09375 0l0 -0.328125q0.578125 0 0.78125 -0.109375q0.21875 -0.125 0.328125 -0.390625q0.125 -0.28125 0.125 -1.0625l0 -7.578125q0 -1.40625 -0.0625 -1.734375q-0.0625 -0.328125 -0.203125 -0.4375q-0.140625 -0.125 -0.359375 -0.125q-0.234375 0 -0.609375 0.15625l-0.140625 -0.328125l2.484375 -1.015625l0.40625 0zm12.191101 16.609375l0 0.328125q-1.375 -0.6875 -2.296875 -1.609375q-1.3125 -1.328125 -2.03125 -3.125q-0.703125 -1.796875 -0.703125 -3.71875q0 -2.828125 1.390625 -5.15625q1.390625 -2.328125 3.640625 -3.328125l0 0.375q-1.125 0.625 -1.84375 1.703125q-0.71875 1.078125 -1.078125 2.734375q-0.359375 1.640625 -0.359375 3.4375q0 1.9375 0.3125 3.53125q0.234375 1.265625 0.5625 2.015625q0.34375 0.765625 0.90625 1.46875q0.578125 0.703125 1.5 1.34375zm8.0877075 -6.828125q-0.34375 1.65625 -1.328125 2.546875q-0.984375 0.875 -2.171875 0.875q-1.421875 0 -2.484375 -1.1875q-1.046875 -1.1875 -1.046875 -3.21875q0 -1.96875 1.171875 -3.203125q1.171875 -1.234375 2.8125 -1.234375q1.21875 0 2.015625 0.65625q0.796875 0.65625 0.796875 1.34375q0 0.359375 -0.234375 0.578125q-0.21875 0.203125 -0.609375 0.203125q-0.546875 0 -0.8125 -0.34375q-0.15625 -0.1875 -0.21875 -0.71875q-0.046875 -0.546875 -0.359375 -0.828125q-0.328125 -0.28125 -0.890625 -0.28125q-0.90625 0 -1.46875 0.671875q-0.734375 0.90625 -0.734375 2.359375q0 1.5 0.734375 2.640625q0.734375 1.140625 1.984375 1.140625q0.890625 0 1.609375 -0.609375q0.5 -0.421875 0.96875 -1.515625l0.265625 0.125zm2.5930176 -2.03125q0 1.859375 0.90625 2.921875q0.90625 1.046875 2.140625 1.046875q0.8125 0 1.421875 -0.4375q0.609375 -0.453125 1.015625 -1.546875l0.28125 0.171875q-0.1875 1.25 -1.109375 2.28125q-0.921875 1.015625 -2.296875 1.015625q-1.515625 0 -2.59375 -1.171875q-1.0625 -1.171875 -1.0625 -3.140625q0 -2.140625 1.09375 -3.328125q1.109375 -1.203125 2.765625 -1.203125q1.40625 0 2.296875 0.921875q0.90625 0.921875 0.90625 2.46875l-5.765625 0zm0 -0.53125l3.859375 0q-0.046875 -0.796875 -0.1875 -1.125q-0.234375 -0.515625 -0.6875 -0.796875q-0.4375 -0.296875 -0.9375 -0.296875q-0.75 0 -1.34375 0.59375q-0.59375 0.578125 -0.703125 1.625zm8.999268 -7.21875q0.390625 0 0.65625 0.265625q0.265625 0.265625 0.265625 0.65625q0 0.375 -0.265625 0.65625q-0.265625 0.265625 -0.65625 0.265625q-0.375 0 -0.65625 -0.265625q-0.265625 -0.28125 -0.265625 -0.65625q0 -0.390625 0.265625 -0.65625q0.265625 -0.265625 0.65625 -0.265625zm0.765625 4.359375l0 6.703125q0 0.78125 0.109375 1.046875q0.109375 0.265625 0.328125 0.390625q0.234375 0.125 0.828125 0.125l0 0.328125l-4.0625 0l0 -0.328125q0.609375 0 0.8125 -0.109375q0.21875 -0.125 0.34375 -0.390625q0.125 -0.28125 0.125 -1.0625l0 -3.203125q0 -1.359375 -0.078125 -1.765625q-0.078125 -0.296875 -0.21875 -0.40625q-0.125 -0.109375 -0.359375 -0.109375q-0.265625 0 -0.625 0.140625l-0.125 -0.328125l2.515625 -1.03125l0.40625 0zm5.1676636 -4.359375l0 11.0625q0 0.78125 0.109375 1.046875q0.125 0.25 0.359375 0.390625q0.234375 0.125 0.875 0.125l0 0.328125l-4.09375 0l0 -0.328125q0.578125 0 0.78125 -0.109375q0.21875 -0.125 0.328125 -0.390625q0.125 -0.28125 0.125 -1.0625l0 -7.578125q0 -1.40625 -0.0625 -1.734375q-0.0625 -0.328125 -0.203125 -0.4375q-0.140625 -0.125 -0.359375 -0.125q-0.234375 0 -0.609375 0.15625l-0.140625 -0.328125l2.484375 -1.015625l0.40625 0zm4.4333496 0q0.390625 0 0.65625 0.265625q0.265625 0.265625 0.265625 0.65625q0 0.375 -0.265625 0.65625q-0.265625 0.265625 -0.65625 0.265625q-0.375 0 -0.65625 -0.265625q-0.265625 -0.28125 -0.265625 -0.65625q0 -0.390625 0.265625 -0.65625q0.265625 -0.265625 0.65625 -0.265625zm0.765625 4.359375l0 6.703125q0 0.78125 0.109375 1.046875q0.109375 0.265625 0.328125 0.390625q0.234375 0.125 0.828125 0.125l0 0.328125l-4.0625 0l0 -0.328125q0.609375 0 0.8125 -0.109375q0.21875 -0.125 0.34375 -0.390625q0.125 -0.28125 0.125 -1.0625l0 -3.203125q0 -1.359375 -0.078125 -1.765625q-0.078125 -0.296875 -0.21875 -0.40625q-0.125 -0.109375 -0.359375 -0.109375q-0.265625 0 -0.625 0.140625l-0.125 -0.328125l2.515625 -1.03125l0.40625 0zm4.7301636 1.765625q1.46875 -1.765625 2.796875 -1.765625q0.6875 0 1.171875 0.34375q0.5 0.34375 0.78125 1.125q0.203125 0.546875 0.203125 1.671875l0 3.5625q0 0.796875 0.125 1.078125q0.109375 0.234375 0.328125 0.359375q0.21875 0.125 0.828125 0.125l0 0.328125l-4.125 0l0 -0.328125l0.171875 0q0.578125 0 0.8125 -0.171875q0.234375 -0.1875 0.328125 -0.53125q0.03125 -0.140625 0.03125 -0.859375l0 -3.40625q0 -1.140625 -0.296875 -1.65625q-0.296875 -0.515625 -1.0 -0.515625q-1.078125 0 -2.15625 1.1875l0 4.390625q0 0.859375 0.09375 1.046875q0.140625 0.265625 0.359375 0.390625q0.21875 0.125 0.90625 0.125l0 0.328125l-4.125 0l0 -0.328125l0.171875 0q0.640625 0 0.859375 -0.3125q0.234375 -0.328125 0.234375 -1.25l0 -3.09375q0 -1.5 -0.078125 -1.828125q-0.0625 -0.328125 -0.203125 -0.4375q-0.140625 -0.125 -0.375 -0.125q-0.265625 0 -0.609375 0.140625l-0.140625 -0.328125l2.515625 -1.03125l0.390625 0l0 1.765625zm9.125 3.78125q-0.765625 -0.375 -1.171875 -1.03125q-0.40625 -0.671875 -0.40625 -1.484375q0 -1.25 0.921875 -2.140625q0.9375 -0.890625 2.40625 -0.890625q1.1875 0 2.0625 0.59375l1.765625 0q0.390625 0 0.453125 0.015625q0.0625 0.015625 0.09375 0.078125q0.046875 0.078125 0.046875 0.296875q0 0.234375 -0.03125 0.328125q-0.03125 0.046875 -0.109375 0.078125q-0.0625 0.015625 -0.453125 0.015625l-1.078125 0q0.5 0.65625 0.5 1.671875q0 1.171875 -0.890625 2.0q-0.890625 0.828125 -2.390625 0.828125q-0.625 0 -1.265625 -0.1875q-0.40625 0.359375 -0.546875 0.625q-0.140625 0.25 -0.140625 0.421875q0 0.15625 0.140625 0.3125q0.15625 0.140625 0.59375 0.203125q0.265625 0.03125 1.28125 0.0625q1.875 0.046875 2.421875 0.125q0.859375 0.125 1.359375 0.640625q0.5 0.5 0.5 1.25q0 1.03125 -0.953125 1.9375q-1.421875 1.328125 -3.71875 1.328125q-1.75 0 -2.96875 -0.796875q-0.671875 -0.453125 -0.671875 -0.953125q0 -0.21875 0.09375 -0.4375q0.15625 -0.328125 0.640625 -0.9375q0.0625 -0.078125 0.921875 -0.984375q-0.46875 -0.28125 -0.671875 -0.5q-0.1875 -0.21875 -0.1875 -0.5q0 -0.328125 0.25 -0.75q0.265625 -0.4375 1.203125 -1.21875zm1.59375 -5.109375q-0.6875 0 -1.140625 0.546875q-0.453125 0.53125 -0.453125 1.640625q0 1.4375 0.625 2.234375q0.46875 0.59375 1.203125 0.59375q0.6875 0 1.125 -0.515625q0.453125 -0.515625 0.453125 -1.625q0 -1.453125 -0.625 -2.265625q-0.46875 -0.609375 -1.1875 -0.609375zm-1.6875 8.15625q-0.421875 0.46875 -0.640625 0.859375q-0.21875 0.40625 -0.21875 0.75q0 0.4375 0.53125 0.765625q0.90625 0.5625 2.625 0.5625q1.640625 0 2.421875 -0.578125q0.78125 -0.578125 0.78125 -1.234375q0 -0.484375 -0.46875 -0.671875q-0.46875 -0.203125 -1.875 -0.25q-2.046875 -0.046875 -3.15625 -0.203125zm7.03125 -12.578125l0 -0.375q1.375 0.6875 2.296875 1.609375q1.3125 1.328125 2.015625 3.125q0.71875 1.78125 0.71875 3.734375q0 2.8125 -1.390625 5.140625q-1.390625 2.328125 -3.640625 3.328125l0 -0.328125q1.125 -0.625 1.84375 -1.703125q0.71875 -1.0625 1.0625 -2.71875q0.359375 -1.65625 0.359375 -3.453125q0 -1.9375 -0.296875 -3.546875q-0.234375 -1.25 -0.578125 -2.0q-0.328125 -0.765625 -0.90625 -1.46875q-0.5625 -0.703125 -1.484375 -1.34375z" fill-rule="nonzero"/><path fill="#000000" fill-opacity="0.0" d="m263.46457 196.56955l0 126.58267" fill-rule="evenodd"/><path stroke="#000000" stroke-width="1.0" stroke-linejoin="round" stroke-linecap="butt" d="m263.46457 196.56955l0 126.58267" fill-rule="evenodd"/><path fill="#000000" fill-opacity="0.0" d="m231.55905 224.17586l63.811035 0" fill-rule="evenodd"/><path stroke="#000000" stroke-width="1.0" stroke-linejoin="round" stroke-linecap="butt" d="m231.55905 224.17586l63.811035 0" fill-rule="evenodd"/><path fill="#000000" fill-opacity="0.0" d="m231.55905 258.31235l63.811035 0" fill-rule="evenodd"/><path stroke="#000000" stroke-width="1.0" stroke-linejoin="round" stroke-linecap="butt" d="m231.55905 258.31235l63.811035 0" fill-rule="evenodd"/><path fill="#000000" fill-opacity="0.0" d="m232.58923 291.2257l63.811035 0" fill-rule="evenodd"/><path stroke="#000000" stroke-width="1.0" stroke-linejoin="round" stroke-linecap="butt" d="m232.58923 291.2257l63.811035 0" fill-rule="evenodd"/><path fill="#000000" d="m254.4567 224.17586l0 0c0 -4.6531067 4.032959 -8.425201 9.007874 -8.425201l0 0c4.9749146 0 9.007874 3.7720947 9.007874 8.425201l0 0c0 4.6531067 -4.032959 8.425186 -9.007874 8.425186l0 0c-4.9749146 0 -9.007874 -3.7720795 -9.007874 -8.425186z" fill-rule="evenodd"/><path stroke="#000000" stroke-width="1.0" stroke-linejoin="round" stroke-linecap="butt" d="m254.4567 224.17586l0 0c0 -4.6531067 4.032959 -8.425201 9.007874 -8.425201l0 0c4.9749146 0 9.007874 3.7720947 9.007874 8.425201l0 0c0 4.6531067 -4.032959 8.425186 -9.007874 8.425186l0 0c-4.9749146 0 -9.007874 -3.7720795 -9.007874 -8.425186z" fill-rule="evenodd"/><path fill="#000000" d="m254.4567 257.70078l0 0c0 -4.6530914 4.032959 -8.425186 9.007874 -8.425186l0 0c4.9749146 0 9.007874 3.7720947 9.007874 8.425186l0 0c0 4.6531067 -4.032959 8.425201 -9.007874 8.425201l0 0c-4.9749146 0 -9.007874 -3.7720947 -9.007874 -8.425201z" fill-rule="evenodd"/><path stroke="#000000" stroke-width="1.0" stroke-linejoin="round" stroke-linecap="butt" d="m254.4567 257.70078l0 0c0 -4.6530914 4.032959 -8.425186 9.007874 -8.425186l0 0c4.9749146 0 9.007874 3.7720947 9.007874 8.425186l0 0c0 4.6531067 -4.032959 8.425201 -9.007874 8.425201l0 0c-4.9749146 0 -9.007874 -3.7720947 -9.007874 -8.425201z" fill-rule="evenodd"/><path fill="#000000" d="m254.4567 289.95145l0 0c0 -4.6531067 4.032959 -8.425201 9.007874 -8.425201l0 0c4.9749146 0 9.007874 3.7720947 9.007874 8.425201l0 0c0 4.6531067 -4.032959 8.425201 -9.007874 8.425201l0 0c-4.9749146 0 -9.007874 -3.7720947 -9.007874 -8.425201z" fill-rule="evenodd"/><path stroke="#000000" stroke-width="1.0" stroke-linejoin="round" stroke-linecap="butt" d="m254.4567 289.95145l0 0c0 -4.6531067 4.032959 -8.425201 9.007874 -8.425201l0 0c4.9749146 0 9.007874 3.7720947 9.007874 8.425201l0 0c0 4.6531067 -4.032959 8.425201 -9.007874 8.425201l0 0c-4.9749146 0 -9.007874 -3.7720947 -9.007874 -8.425201z" fill-rule="evenodd"/><path fill="#000000" fill-opacity="0.0" d="m318.0105 202.35957l54.551178 0l0 42.015762l-54.551178 0z" fill-rule="evenodd"/><path fill="#000000" d="m329.71362 216.31082q0.390625 0 0.65625 0.28125q0.28125 0.265625 0.28125 0.65625q0 0.390625 -0.28125 0.671875q-0.265625 0.265625 -0.65625 0.265625q-0.390625 0 -0.671875 -0.265625q-0.265625 -0.28125 -0.265625 -0.671875q0 -0.390625 0.265625 -0.65625q0.28125 -0.28125 0.671875 -0.28125zm0.78125 4.375l0 8.40625q0 2.140625 -0.921875 3.171875q-0.90625 1.046875 -2.359375 1.046875q-0.828125 0 -1.234375 -0.3125q-0.40625 -0.296875 -0.40625 -0.609375q0 -0.328125 0.234375 -0.5625q0.21875 -0.21875 0.515625 -0.21875q0.234375 0 0.484375 0.125q0.15625 0.0625 0.59375 0.453125q0.453125 0.40625 0.75 0.40625q0.21875 0 0.421875 -0.171875q0.21875 -0.171875 0.3125 -0.578125q0.109375 -0.390625 0.109375 -1.703125l0 -5.9375q0 -1.375 -0.09375 -1.765625q-0.0625 -0.3125 -0.203125 -0.421875q-0.125 -0.109375 -0.359375 -0.109375q-0.265625 0 -0.625 0.140625l-0.125 -0.328125l2.515625 -1.03125l0.390625 0zm6.573944 7.3125l0 -4.546875l-4.53125 0l0 -0.75l4.53125 0l0 -4.53125l0.734375 0l0 4.53125l4.546875 0l0 0.75l-4.546875 0l0 4.546875l-0.734375 0zm7.833954 -9.859375l3.0 -1.46875l0.3125 0l0 10.4375q0 1.03125 0.078125 1.296875q0.09375 0.25 0.359375 0.390625q0.28125 0.125 1.109375 0.140625l0 0.34375l-4.640625 0l0 -0.34375q0.875 -0.015625 1.125 -0.140625q0.265625 -0.140625 0.359375 -0.359375q0.09375 -0.21875 0.09375 -1.328125l0 -6.671875q0 -1.34375 -0.078125 -1.734375q-0.078125 -0.296875 -0.25 -0.421875q-0.15625 -0.140625 -0.390625 -0.140625q-0.34375 0 -0.9375 0.28125l-0.140625 -0.28125z" fill-rule="nonzero"/><path fill="#000000" fill-opacity="0.0" d="m318.0105 238.85301l54.551178 0l0 42.015762l-54.551178 0z" fill-rule="evenodd"/><path fill="#000000" d="m329.71362 252.80426q0.390625 0 0.65625 0.28125q0.28125 0.265625 0.28125 0.65625q0 0.390625 -0.28125 0.671875q-0.265625 0.265625 -0.65625 0.265625q-0.390625 0 -0.671875 -0.265625q-0.265625 -0.28125 -0.265625 -0.671875q0 -0.390625 0.265625 -0.65625q0.28125 -0.28125 0.671875 -0.28125zm0.78125 4.375l0 8.40625q0 2.140625 -0.921875 3.171875q-0.90625 1.046875 -2.359375 1.046875q-0.828125 0 -1.234375 -0.3125q-0.40625 -0.296875 -0.40625 -0.609375q0 -0.328125 0.234375 -0.5625q0.21875 -0.21875 0.515625 -0.21875q0.234375 0 0.484375 0.125q0.15625 0.0625 0.59375 0.453125q0.453125 0.40625 0.75 0.40625q0.21875 0 0.421875 -0.171875q0.21875 -0.171875 0.3125 -0.578125q0.109375 -0.390625 0.109375 -1.703125l0 -5.9375q0 -1.375 -0.09375 -1.765625q-0.0625 -0.3125 -0.203125 -0.421875q-0.125 -0.109375 -0.359375 -0.109375q-0.265625 0 -0.625 0.140625l-0.125 -0.328125l2.515625 -1.03125l0.390625 0z" fill-rule="nonzero"/><path fill="#000000" fill-opacity="0.0" d="m318.0105 270.21783l54.551178 0l0 42.015747l-54.551178 0z" fill-rule="evenodd"/><path fill="#000000" d="m329.71362 284.1691q0.390625 0 0.65625 0.28125q0.28125 0.265625 0.28125 0.65625q0 0.390625 -0.28125 0.671875q-0.265625 0.265625 -0.65625 0.265625q-0.390625 0 -0.671875 -0.265625q-0.265625 -0.28125 -0.265625 -0.671875q0 -0.390625 0.265625 -0.65625q0.28125 -0.28125 0.671875 -0.28125zm0.78125 4.375l0 8.40625q0 2.140625 -0.921875 3.171875q-0.90625 1.046875 -2.359375 1.046875q-0.828125 0 -1.234375 -0.3125q-0.40625 -0.296875 -0.40625 -0.609375q0 -0.328125 0.234375 -0.5625q0.21875 -0.21875 0.515625 -0.21875q0.234375 0 0.484375 0.125q0.15625 0.0625 0.59375 0.453125q0.453125 0.40625 0.75 0.40625q0.21875 0 0.421875 -0.171875q0.21875 -0.171875 0.3125 -0.578125q0.109375 -0.390625 0.109375 -1.703125l0 -5.9375q0 -1.375 -0.09375 -1.765625q-0.0625 -0.3125 -0.203125 -0.421875q-0.125 -0.109375 -0.359375 -0.109375q-0.265625 0 -0.625 0.140625l-0.125 -0.328125l2.515625 -1.03125l0.390625 0zm11.183319 4.46875l-9.640625 0l0 -0.671875l9.640625 0l0 0.671875zm2.03125 -7.015625l3.0 -1.46875l0.3125 0l0 10.4375q0 1.03125 0.078125 1.296875q0.09375 0.25 0.359375 0.390625q0.28125 0.125 1.109375 0.140625l0 0.34375l-4.640625 0l0 -0.34375q0.875 -0.015625 1.125 -0.140625q0.265625 -0.140625 0.359375 -0.359375q0.09375 -0.21875 0.09375 -1.328125l0 -6.671875q0 -1.34375 -0.078125 -1.734375q-0.078125 -0.296875 -0.25 -0.421875q-0.15625 -0.140625 -0.390625 -0.140625q-0.34375 0 -0.9375 0.28125l-0.140625 -0.28125z" fill-rule="nonzero"/><path fill="#000000" fill-opacity="0.0" d="m712.6877 194.4567l1.0393677 126.48819" fill-rule="evenodd"/><path stroke="#000000" stroke-width="1.0" stroke-linejoin="round" stroke-linecap="butt" d="m712.6877 194.4567l1.0393677 126.48819" fill-rule="evenodd"/><path fill="#000000" fill-opacity="0.0" d="m700.8609 321.85828l24.692932 0" fill-rule="evenodd"/><path stroke="#000000" stroke-width="1.0" stroke-linejoin="round" stroke-linecap="butt" d="m700.8609 321.85828l24.692932 0" fill-rule="evenodd"/><path fill="#000000" fill-opacity="0.0" d="m700.8609 195.54068l24.692932 0" fill-rule="evenodd"/><path stroke="#000000" stroke-width="1.0" stroke-linejoin="round" stroke-linecap="butt" d="m700.8609 195.54068l24.692932 0" fill-rule="evenodd"/><path fill="#000000" fill-opacity="0.0" d="m725.55383 300.5958l54.551147 0l0 42.015747l-54.551147 0z" fill-rule="evenodd"/><path fill="#000000" d="m737.25696 314.54706q0.390625 0 0.65625 0.28125q0.28125 0.265625 0.28125 0.65625q0 0.390625 -0.28125 0.671875q-0.265625 0.265625 -0.65625 0.265625q-0.390625 0 -0.671875 -0.265625q-0.265625 -0.28125 -0.265625 -0.671875q0 -0.390625 0.265625 -0.65625q0.28125 -0.28125 0.671875 -0.28125zm0.78125 4.375l0 8.40625q0 2.140625 -0.921875 3.171875q-0.90625 1.046875 -2.359375 1.046875q-0.828125 0 -1.234375 -0.3125q-0.40625 -0.296875 -0.40625 -0.609375q0 -0.328125 0.234375 -0.5625q0.21875 -0.21875 0.515625 -0.21875q0.234375 0 0.484375 0.125q0.15625 0.0625 0.59375 0.453125q0.453125 0.40625 0.75 0.40625q0.21875 0 0.421875 -0.171875q0.21875 -0.171875 0.3125 -0.578125q0.109375 -0.390625 0.109375 -1.703125l0 -5.9375q0 -1.375 -0.09375 -1.765625q-0.0625 -0.3125 -0.203125 -0.421875q-0.125 -0.109375 -0.359375 -0.109375q-0.265625 0 -0.625 0.140625l-0.125 -0.328125l2.515625 -1.03125l0.390625 0zm6.706726 0.546875l9.828125 0l0 0.75l-9.828125 0l0 -0.75zm0 2.96875l9.828125 0l0 0.75l-9.828125 0l0 -0.75zm15.513672 -1.03125q0 -2.109375 0.640625 -3.625q0.640625 -1.53125 1.6875 -2.28125q0.828125 -0.59375 1.703125 -0.59375q1.421875 0 2.546875 1.453125q1.40625 1.796875 1.40625 4.859375q0 2.15625 -0.625 3.65625q-0.609375 1.5 -1.578125 2.1875q-0.953125 0.671875 -1.84375 0.671875q-1.765625 0 -2.9375 -2.09375q-1.0 -1.75 -1.0 -4.234375zm1.78125 0.234375q0 2.546875 0.640625 4.15625q0.515625 1.359375 1.546875 1.359375q0.484375 0 1.015625 -0.4375q0.53125 -0.4375 0.796875 -1.484375q0.421875 -1.5625 0.421875 -4.421875q0 -2.109375 -0.4375 -3.515625q-0.328125 -1.046875 -0.84375 -1.484375q-0.375 -0.296875 -0.90625 -0.296875q-0.609375 0 -1.09375 0.546875q-0.65625 0.765625 -0.90625 2.390625q-0.234375 1.609375 -0.234375 3.1875z" fill-rule="nonzero"/><path fill="#000000" fill-opacity="0.0" d="m725.55383 174.5328l71.02362 0l0 42.015747l-71.02362 0z" fill-rule="evenodd"/><path fill="#000000" d="m737.25696 188.48405q0.390625 0 0.65625 0.28125q0.28125 0.265625 0.28125 0.65625q0 0.390625 -0.28125 0.671875q-0.265625 0.265625 -0.65625 0.265625q-0.390625 0 -0.671875 -0.265625q-0.265625 -0.28125 -0.265625 -0.671875q0 -0.390625 0.265625 -0.65625q0.28125 -0.28125 0.671875 -0.28125zm0.78125 4.375l0 8.40625q0 2.140625 -0.921875 3.171875q-0.90625 1.046875 -2.359375 1.046875q-0.828125 0 -1.234375 -0.3125q-0.40625 -0.296875 -0.40625 -0.609375q0 -0.328125 0.234375 -0.5625q0.21875 -0.21875 0.515625 -0.21875q0.234375 0 0.484375 0.125q0.15625 0.0625 0.59375 0.453125q0.453125 0.40625 0.75 0.40625q0.21875 0 0.421875 -0.171875q0.21875 -0.171875 0.3125 -0.578125q0.109375 -0.390625 0.109375 -1.703125l0 -5.9375q0 -1.375 -0.09375 -1.765625q-0.0625 -0.3125 -0.203125 -0.421875q-0.125 -0.109375 -0.359375 -0.109375q-0.265625 0 -0.625 0.140625l-0.125 -0.328125l2.515625 -1.03125l0.390625 0zm6.706726 0.546875l9.828125 0l0 0.75l-9.828125 0l0 -0.75zm0 2.96875l9.828125 0l0 0.75l-9.828125 0l0 -0.75zm14.591797 -7.28125l3.359375 0l7.546875 9.265625l0 -7.125q0 -1.125 -0.25 -1.421875q-0.34375 -0.375 -1.0625 -0.375l-0.4375 0l0 -0.34375l4.296875 0l0 0.34375l-0.4375 0q-0.78125 0 -1.109375 0.46875q-0.203125 0.296875 -0.203125 1.328125l0 10.421875l-0.328125 0l-8.140625 -9.953125l0 7.609375q0 1.140625 0.25 1.421875q0.34375 0.375 1.0625 0.375l0.4375 0l0 0.34375l-4.296875 0l0 -0.34375l0.421875 0q0.796875 0 1.125 -0.46875q0.203125 -0.296875 0.203125 -1.328125l0 -8.59375q-0.53125 -0.625 -0.8125 -0.828125q-0.28125 -0.203125 -0.8125 -0.375q-0.265625 -0.078125 -0.8125 -0.078125l0 -0.34375zm21.551025 9.796875l-0.09375 2.5625l-7.359375 0l0 -0.328125l5.53125 -7.375l-2.734375 0q-0.875 0 -1.15625 0.109375q-0.265625 0.109375 -0.4375 0.4375q-0.25 0.453125 -0.28125 1.125l-0.375 0l0.0625 -2.3125l7.0 0l0 0.34375l-5.59375 7.390625l3.03125 0q0.96875 0 1.296875 -0.15625q0.34375 -0.15625 0.5625 -0.5625q0.140625 -0.296875 0.25 -1.234375l0.296875 0z" fill-rule="nonzero"/><path fill="#000000" fill-opacity="0.0" d="m425.042 228.47244l212.0 0l0 42.015747l-212.0 0z" fill-rule="evenodd"/><path fill="#000000" d="m442.58887 253.01744l-0.859375 2.375l-7.28125 0l0 -0.34375q3.203125 -2.921875 4.515625 -4.78125q1.3125 -1.859375 1.3125 -3.40625q0 -1.171875 -0.71875 -1.921875q-0.71875 -0.765625 -1.71875 -0.765625q-0.90625 0 -1.640625 0.546875q-0.71875 0.53125 -1.0625 1.546875l-0.34375 0q0.234375 -1.671875 1.171875 -2.578125q0.953125 -0.90625 2.359375 -0.90625q1.5 0 2.5 0.96875q1.015625 0.96875 1.015625 2.28125q0 0.9375 -0.4375 1.875q-0.671875 1.46875 -2.1875 3.125q-2.265625 2.46875 -2.828125 2.984375l3.21875 0q0.984375 0 1.375 -0.0625q0.40625 -0.078125 0.71875 -0.296875q0.328125 -0.234375 0.5625 -0.640625l0.328125 0zm4.609375 -4.25l5.75 0l0 -3.53125q0 -0.953125 -0.125 -1.25q-0.09375 -0.234375 -0.375 -0.390625q-0.390625 -0.21875 -0.828125 -0.21875l-0.4375 0l0 -0.34375l5.28125 0l0 0.34375l-0.4375 0q-0.4375 0 -0.828125 0.203125q-0.296875 0.15625 -0.40625 0.453125q-0.09375 0.296875 -0.09375 1.203125l0 7.96875q0 0.9375 0.109375 1.234375q0.09375 0.234375 0.375 0.390625q0.40625 0.21875 0.84375 0.21875l0.4375 0l0 0.34375l-5.28125 0l0 -0.34375l0.4375 0q0.75 0 1.09375 -0.4375q0.234375 -0.296875 0.234375 -1.40625l0 -3.765625l-5.75 0l0 3.765625q0 0.9375 0.125 1.234375q0.09375 0.234375 0.390625 0.390625q0.390625 0.21875 0.828125 0.21875l0.4375 0l0 0.34375l-5.296875 0l0 -0.34375l0.4375 0q0.765625 0 1.125 -0.4375q0.21875 -0.296875 0.21875 -1.40625l0 -7.96875q0 -0.953125 -0.125 -1.25q-0.09375 -0.234375 -0.375 -0.390625q-0.40625 -0.21875 -0.84375 -0.21875l-0.4375 0l0 -0.34375l5.296875 0l0 0.34375l-0.4375 0q-0.4375 0 -0.828125 0.203125q-0.296875 0.15625 -0.40625 0.453125q-0.109375 0.296875 -0.109375 1.203125l0 3.53125z" fill-rule="nonzero"/><path fill="#000000" d="m462.5462 260.8143l-0.578125 1.578125l-4.859375 0l0 -0.21875q2.140625 -1.96875 3.015625 -3.203125q0.875 -1.234375 0.875 -2.265625q0 -0.78123474 -0.484375 -1.2812347q-0.46875 -0.5 -1.140625 -0.5q-0.609375 0 -1.09375 0.359375q-0.484375 0.34375 -0.703125 1.0312347l-0.234375 0q0.15625 -1.1249847 0.78125 -1.7187347q0.625 -0.609375 1.578125 -0.609375q1.0 0 1.671875 0.640625q0.671875 0.640625 0.671875 1.5156097q0 0.625 -0.296875 1.265625q-0.453125 0.96875 -1.453125 2.078125q-1.515625 1.65625 -1.890625 1.984375l2.140625 0q0.65625 0 0.921875 -0.046875q0.265625 -0.046875 0.46875 -0.1875q0.21875 -0.15625 0.390625 -0.421875l0.21875 0z" fill-rule="nonzero"/><path fill="#000000" d="m472.60077 254.11119l0 -4.546875l-4.53125 0l0 -0.75l4.53125 0l0 -4.53125l0.734375 0l0 4.53125l4.546875 0l0 0.75l-4.546875 0l0 4.546875l-0.734375 0zm17.138672 -11.359375q2.40625 0 4.15625 1.828125q1.765625 1.828125 1.765625 4.5625q0 2.8125 -1.78125 4.671875q-1.765625 1.859375 -4.296875 1.859375q-2.546875 0 -4.28125 -1.8125q-1.734375 -1.8125 -1.734375 -4.6875q0 -2.953125 2.0 -4.796875q1.75 -1.625 4.171875 -1.625zm-0.171875 0.671875q-1.671875 0 -2.671875 1.234375q-1.25 1.53125 -1.25 4.46875q0 3.03125 1.296875 4.65625q1.0 1.25 2.625 1.25q1.75 0 2.875 -1.359375q1.140625 -1.359375 1.140625 -4.28125q0 -3.171875 -1.25 -4.734375q-1.0 -1.234375 -2.765625 -1.234375z" fill-rule="nonzero"/><path fill="#000000" d="m502.08737 260.8143l-0.578125 1.578125l-4.859375 0l0 -0.21875q2.140625 -1.96875 3.015625 -3.203125q0.875 -1.234375 0.875 -2.265625q0 -0.78123474 -0.484375 -1.2812347q-0.46875 -0.5 -1.140625 -0.5q-0.609375 0 -1.09375 0.359375q-0.484375 0.34375 -0.703125 1.0312347l-0.234375 0q0.15625 -1.1249847 0.78125 -1.7187347q0.625 -0.609375 1.578125 -0.609375q1.0 0 1.671875 0.640625q0.671875 0.640625 0.671875 1.5156097q0 0.625 -0.296875 1.265625q-0.453125 0.96875 -1.453125 2.078125q-1.515625 1.65625 -1.890625 1.984375l2.140625 0q0.65625 0 0.921875 -0.046875q0.265625 -0.046875 0.46875 -0.1875q0.21875 -0.15625 0.390625 -0.421875l0.21875 0z" fill-rule="nonzero"/><path fill="#000000" d="m521.43884 247.40807q1.203125 1.328125 2.078125 2.015625q0.890625 0.6875 1.671875 1.015625l0 0.421875q-0.890625 0.4375 -1.75 1.125q-0.84375 0.671875 -2.015625 1.96875l-0.703125 0q0.859375 -1.828125 1.796875 -2.8125l-14.53125 0l0 -0.921875l14.53125 0q-0.6875 -0.875 -0.96875 -1.296875q-0.265625 -0.4375 -0.8125 -1.515625l0.703125 0zm17.695312 5.609375l-0.859375 2.375l-7.28125 0l0 -0.34375q3.203125 -2.921875 4.515625 -4.78125q1.3125 -1.859375 1.3125 -3.40625q0 -1.171875 -0.71875 -1.921875q-0.71875 -0.765625 -1.71875 -0.765625q-0.90625 0 -1.640625 0.546875q-0.71875 0.53125 -1.0625 1.546875l-0.34375 0q0.234375 -1.671875 1.171875 -2.578125q0.953125 -0.90625 2.359375 -0.90625q1.5 0 2.5 0.96875q1.015625 0.96875 1.015625 2.28125q0 0.9375 -0.4375 1.875q-0.671875 1.46875 -2.1875 3.125q-2.265625 2.46875 -2.828125 2.984375l3.21875 0q0.984375 0 1.375 -0.0625q0.40625 -0.078125 0.71875 -0.296875q0.328125 -0.234375 0.5625 -0.640625l0.328125 0zm4.609375 -4.25l5.75 0l0 -3.53125q0 -0.953125 -0.125 -1.25q-0.09375 -0.234375 -0.375 -0.390625q-0.390625 -0.21875 -0.828125 -0.21875l-0.4375 0l0 -0.34375l5.28125 0l0 0.34375l-0.4375 0q-0.4375 0 -0.828125 0.203125q-0.296875 0.15625 -0.40625 0.453125q-0.09375 0.296875 -0.09375 1.203125l0 7.96875q0 0.9375 0.109375 1.234375q0.09375 0.234375 0.375 0.390625q0.40625 0.21875 0.84375 0.21875l0.4375 0l0 0.34375l-5.28125 0l0 -0.34375l0.4375 0q0.75 0 1.09375 -0.4375q0.234375 -0.296875 0.234375 -1.40625l0 -3.765625l-5.75 0l0 3.765625q0 0.9375 0.125 1.234375q0.09375 0.234375 0.390625 0.390625q0.390625 0.21875 0.828125 0.21875l0.4375 0l0 0.34375l-5.296875 0l0 -0.34375l0.4375 0q0.765625 0 1.125 -0.4375q0.21875 -0.296875 0.21875 -1.40625l0 -7.96875q0 -0.953125 -0.125 -1.25q-0.09375 -0.234375 -0.375 -0.390625q-0.40625 -0.21875 -0.84375 -0.21875l-0.4375 0l0 -0.34375l5.296875 0l0 0.34375l-0.4375 0q-0.4375 0 -0.828125 0.203125q-0.296875 0.15625 -0.40625 0.453125q-0.109375 0.296875 -0.109375 1.203125l0 3.53125z" fill-rule="nonzero"/><path fill="#000000" d="m559.0915 260.8143l-0.578125 1.578125l-4.859375 0l0 -0.21875q2.140625 -1.96875 3.015625 -3.203125q0.875 -1.234375 0.875 -2.265625q0 -0.78123474 -0.484375 -1.2812347q-0.46875 -0.5 -1.140625 -0.5q-0.609375 0 -1.09375 0.359375q-0.484375 0.34375 -0.703125 1.0312347l-0.234375 0q0.15625 -1.1249847 0.78125 -1.7187347q0.625 -0.609375 1.578125 -0.609375q1.0 0 1.671875 0.640625q0.671875 0.640625 0.671875 1.5156097q0 0.625 -0.296875 1.265625q-0.453125 0.96875 -1.453125 2.078125q-1.515625 1.65625 -1.890625 1.984375l2.140625 0q0.65625 0 0.921875 -0.046875q0.265625 -0.046875 0.46875 -0.1875q0.21875 -0.15625 0.390625 -0.421875l0.21875 0z" fill-rule="nonzero"/><path fill="#000000" d="m566.4351 242.75182q2.40625 0 4.15625 1.828125q1.765625 1.828125 1.765625 4.5625q0 2.8125 -1.78125 4.671875q-1.765625 1.859375 -4.296875 1.859375q-2.546875 0 -4.28125 -1.8125q-1.734375 -1.8125 -1.734375 -4.6875q0 -2.953125 2.0 -4.796875q1.75 -1.625 4.171875 -1.625zm-0.171875 0.671875q-1.671875 0 -2.671875 1.234375q-1.25 1.53125 -1.25 4.46875q0 3.03125 1.296875 4.65625q1.0 1.25 2.625 1.25q1.75 0 2.875 -1.359375q1.140625 -1.359375 1.140625 -4.28125q0 -3.171875 -1.25 -4.734375q-1.0 -1.234375 -2.765625 -1.234375z" fill-rule="nonzero"/><path fill="#000000" fill-opacity="0.0" d="m216.12335 259.3491l0 32.944885" fill-rule="evenodd"/><path stroke="#000000" stroke-width="1.0" stroke-linejoin="round" stroke-linecap="butt" d="m216.12335 262.77615l0 26.090729" fill-rule="evenodd"/><path fill="#000000" stroke="#000000" stroke-width="1.0" stroke-linecap="butt" d="m216.12335 262.77615l1.124588 1.1246033l-1.124588 -3.0897827l-1.1245728 3.0897827z" fill-rule="evenodd"/><path fill="#000000" stroke="#000000" stroke-width="1.0" stroke-linecap="butt" d="m216.12335 288.86688l-1.1245728 -1.1246033l1.1245728 3.0897827l1.124588 -3.0897827z" fill-rule="evenodd"/><path fill="#000000" fill-opacity="0.0" d="m178.16536 251.62073l54.551178 0l0 42.015747l-54.551178 0z" fill-rule="evenodd"/><path fill="#000000" d="m198.33723 278.54074l-10.9375 0l5.71875 -12.640625l5.21875 12.640625zm-2.15625 -0.75l-3.640625 -8.8125l-4.0 8.8125l7.640625 0zm10.2267 -1.8125l-0.09375 2.5625l-7.359375 0l0 -0.328125l5.53125 -7.375l-2.734375 0q-0.875 0 -1.15625 0.109375q-0.265625 0.109375 -0.4375 0.4375q-0.25 0.453125 -0.28125 1.125l-0.375 0l0.0625 -2.3125l7.0 0l0 0.34375l-5.59375 7.390625l3.03125 0q0.96875 0 1.296875 -0.15625q0.34375 -0.15625 0.5625 -0.5625q0.140625 -0.296875 0.25 -1.234375l0.296875 0z" fill-rule="nonzero"/><path fill="#000000" fill-opacity="0.0" d="m385.32285 321.08398l29.35431 0l0 42.015747l-29.35431 0z" fill-rule="evenodd"/><path fill="#000000" d="m405.01035 344.58212l0.3125 0.0625l-1.0625 3.359375l-9.5625 0l0 -0.34375l0.46875 0q0.78125 0 1.109375 -0.5q0.203125 -0.296875 0.203125 -1.359375l0 -7.96875q0 -1.15625 -0.265625 -1.4375q-0.34375 -0.40625 -1.046875 -0.40625l-0.46875 0l0 -0.34375l5.59375 0l0 0.34375q-0.984375 -0.015625 -1.390625 0.1875q-0.390625 0.1875 -0.53125 0.484375q-0.140625 0.28125 -0.140625 1.390625l0 7.75q0 0.765625 0.140625 1.046875q0.109375 0.1875 0.328125 0.28125q0.234375 0.09375 1.421875 0.09375l0.90625 0q1.421875 0 2.0 -0.203125q0.578125 -0.21875 1.046875 -0.75q0.46875 -0.53125 0.9375 -1.6875z" fill-rule="nonzero"/><path fill="#000000" fill-opacity="0.0" d="m681.3123 238.85301l43.212646 0l0 42.015762l-43.212646 0z" fill-rule="evenodd"/><path fill="#000000" d="m694.14044 259.148l5.75 0l0 -3.53125q0 -0.953125 -0.125 -1.25q-0.09375 -0.234375 -0.375 -0.390625q-0.390625 -0.21875 -0.828125 -0.21875l-0.4375 0l0 -0.34375l5.28125 0l0 0.34375l-0.4375 0q-0.4375 0 -0.828125 0.203125q-0.296875 0.15625 -0.40625 0.453125q-0.09375 0.296875 -0.09375 1.203125l0 7.96875q0 0.9375 0.109375 1.234375q0.09375 0.234375 0.375 0.390625q0.40625 0.21875 0.84375 0.21875l0.4375 0l0 0.34375l-5.28125 0l0 -0.34375l0.4375 0q0.75 0 1.09375 -0.4375q0.234375 -0.296875 0.234375 -1.40625l0 -3.765625l-5.75 0l0 3.765625q0 0.9375 0.125 1.234375q0.09375 0.234375 0.390625 0.390625q0.390625 0.21875 0.828125 0.21875l0.4375 0l0 0.34375l-5.296875 0l0 -0.34375l0.4375 0q0.765625 0 1.125 -0.4375q0.21875 -0.296875 0.21875 -1.40625l0 -7.96875q0 -0.953125 -0.125 -1.25q-0.09375 -0.234375 -0.375 -0.390625q-0.40625 -0.21875 -0.84375 -0.21875l-0.4375 0l0 -0.34375l5.296875 0l0 0.34375l-0.4375 0q-0.4375 0 -0.828125 0.203125q-0.296875 0.15625 -0.40625 0.453125q-0.109375 0.296875 -0.109375 1.203125l0 3.53125z" fill-rule="nonzero"/></g></svg>